<svg width="672" height="656" viewBox="0 0 672 656" fill="none" xmlns="http://www.w3.org/2000/svg">
<path fill-rule="evenodd" clip-rule="evenodd" d="M335.833 2.5C151.667 2.5 2.5 151.667 2.5 335.833C2.5 483.333 97.9167 607.917 230.417 652.083C247.083 655 253.333 645 253.333 636.25C253.333 628.333 252.917 602.083 252.917 574.167C169.167 589.583 147.5 553.75 140.833 535C137.083 525.417 120.833 495.833 106.667 487.917C95 481.667 78.3333 466.25 106.25 465.833C132.5 465.417 151.25 490 157.5 500C187.5 550.417 235.417 536.25 254.583 527.5C257.5 505.833 266.25 491.25 275.833 482.917C201.667 474.583 124.167 445.833 124.167 318.333C124.167 282.083 137.083 252.083 158.333 228.75C155 220.417 143.333 186.25 161.667 140.417C161.667 140.417 189.583 131.667 253.333 174.583C280 167.083 308.333 163.333 336.667 163.333C365 163.333 393.333 167.083 420 174.583C483.75 131.25 511.667 140.417 511.667 140.417C530 186.25 518.333 220.417 515 228.75C536.25 252.083 549.167 281.667 549.167 318.333C549.167 446.25 471.25 474.583 397.083 482.917C409.167 493.333 419.583 513.333 419.583 544.583C419.583 589.167 419.167 625 419.167 636.25C419.167 645 425.417 655.417 442.083 652.083C508.257 629.743 565.757 587.217 606.493 530.483C647.23 473.753 669.15 405.677 669.167 335.833C669.167 151.667 520 2.5 335.833 2.5Z" fill="white" stroke="white" stroke-width="5" stroke-linejoin="round"/>
</svg>
