<svg width="800" height="800" viewBox="0 0 800 800" fill="none" xmlns="http://www.w3.org/2000/svg">
<g clip-path="url(#clip0_1916_4168)">
<rect width="800" height="800" fill="black"/>
<path d="M635.617 10.959H164.384C79.6495 10.959 10.959 79.6495 10.959 164.384V635.617C10.959 720.351 79.6495 789.041 164.384 789.041H635.617C720.351 789.041 789.041 720.351 789.041 635.617V164.384C789.041 79.6495 720.351 10.959 635.617 10.959Z" fill="black" stroke="black" stroke-width="21.9178"/>
<path d="M691.794 238.711C661.658 187.117 620.781 146.271 569.152 116.162C517.516 86.0514 461.144 71 399.997 71C338.858 71 282.467 86.056 230.841 116.162C179.208 146.269 138.333 187.117 108.197 238.711C78.0662 290.302 63 346.641 63 407.725C63 481.1 84.4243 547.082 127.284 605.686C170.139 664.294 225.501 704.849 293.365 727.354C301.265 728.819 307.113 727.789 310.915 724.289C314.719 720.785 316.619 716.396 316.619 711.14C316.619 710.263 316.543 702.375 316.397 687.465C316.247 672.554 316.176 659.547 316.176 648.449L306.083 650.193C299.648 651.371 291.53 651.87 281.73 651.729C271.933 651.592 261.764 650.566 251.235 648.659C240.701 646.769 230.903 642.384 221.834 635.515C212.769 628.646 206.334 619.654 202.53 608.554L198.142 598.465C195.218 591.748 190.613 584.286 184.323 576.106C178.032 567.92 171.671 562.37 165.236 559.447L162.164 557.25C160.117 555.789 158.217 554.028 156.46 551.984C154.705 549.94 153.391 547.894 152.513 545.846C151.634 543.795 152.363 542.114 154.707 540.795C157.05 539.475 161.286 538.835 167.432 538.835L176.205 540.145C182.056 541.317 189.293 544.817 197.926 550.666C206.554 556.511 213.647 564.11 219.206 573.459C225.937 585.447 234.047 594.581 243.559 600.866C253.063 607.152 262.646 610.29 272.298 610.29C281.949 610.29 290.286 609.559 297.309 608.104C304.325 606.642 310.908 604.445 317.054 601.524C319.686 581.931 326.854 566.88 338.552 556.359C321.88 554.608 306.89 551.971 293.576 548.465C280.27 544.955 266.519 539.257 252.333 531.358C238.14 523.469 226.366 513.673 217.008 501.986C207.648 490.293 199.967 474.942 193.974 455.947C187.979 436.945 184.98 415.024 184.98 390.179C184.98 354.805 196.538 324.702 219.648 299.854C208.822 273.259 209.844 243.445 222.717 210.415C231.201 207.782 243.782 209.758 260.454 216.332C277.13 222.91 289.339 228.544 297.094 233.216C304.849 237.886 311.063 241.843 315.744 245.053C342.955 237.456 371.036 233.657 399.994 233.657C428.952 233.657 457.039 237.456 484.251 245.053L500.925 234.535C512.327 227.517 525.792 221.085 541.287 215.239C556.791 209.396 568.647 207.786 576.841 210.42C590 243.451 591.173 273.264 580.344 299.859C603.453 324.707 615.015 354.817 615.015 390.184C615.015 415.029 612.006 437.018 606.02 456.167C600.026 475.319 592.278 490.654 582.774 502.206C573.259 513.756 561.41 523.475 547.224 531.362C533.035 539.256 519.28 544.953 505.974 548.464C492.661 551.974 477.672 554.613 460.999 556.367C476.206 569.515 483.81 590.27 483.81 618.622V711.128C483.81 716.383 485.639 720.771 489.3 724.277C492.956 727.777 498.73 728.807 506.63 727.34C574.504 704.838 629.866 664.282 672.719 605.673C715.568 547.069 737 481.088 737 407.713C736.985 346.636 721.911 290.302 691.794 238.711Z" fill="white"/>
</g>
<defs>
<clipPath id="clip0_1916_4168">
<rect width="800" height="800" fill="white"/>
</clipPath>
</defs>
</svg>
