<svg width="600" height="600" viewBox="0 0 600 600" fill="none" xmlns="http://www.w3.org/2000/svg">
<rect x="49" y="84" width="498" height="471" fill="white"/>
<path d="M511.25 511.251H422.35V372.001C422.35 338.801 421.75 296.051 376.1 296.051C329.8 296.051 322.7 332.251 322.7 369.551V511.251H233.8V224.901H319.15V264.051H320.35C337.75 234.351 370.15 216.551 404.55 217.801C494.65 217.801 511.3 277.051 511.3 354.201L511.25 511.201V511.251ZM133.5 185.751C119.844 185.685 106.765 180.234 97.1034 170.583C87.4422 160.931 81.9789 147.857 81.9 134.201C81.9 105.901 105.2 82.6007 133.5 82.6007C161.8 82.6007 185.05 105.901 185.1 134.201C185.1 162.501 161.8 185.751 133.5 185.751ZM177.95 511.251H88.95V224.901H177.95V511.251ZM555.5 0.000743162H44.25C32.6575 -0.0665883 21.5069 4.44372 13.2212 12.5516C4.93545 20.6594 0.184233 31.7095 0 43.3007V556.701C0.184233 568.292 4.93545 579.342 13.2212 587.45C21.5069 595.558 32.6575 600.068 44.25 600.001H555.55C567.169 600.095 578.356 595.599 586.679 587.492C595.003 579.384 599.79 568.318 600 556.701V43.2507C599.79 31.6421 594.999 20.5872 586.673 12.4952C578.347 4.40318 567.16 -0.0699126 555.55 0.0507395L555.5 0.000743162Z" fill="#0A66C2"/>
</svg>
