<svg xmlns="http://www.w3.org/2000/svg" width="1000" height="750" viewBox="0 0 1000 750" role="img" aria-labelledby="title description">
<title id="title">Mutable State: Talent and Company</title>
<desc id="description">Two State cards list Talent and Company information as plain text without individual boxes around each item.</desc>
<defs><marker id="arrow" markerWidth="7" markerHeight="7" refX="5.5" refY="3.5" orient="auto-start-reverse" markerUnits="userSpaceOnUse"><path d="M0 0 L6 3.5 L0 7 Z" fill="#bcbcbc"/></marker></defs>
<style>text{font-family:"Helvetica Neue",Arial,"Apple SD Gothic Neo",sans-serif;text-anchor:middle;fill:#505050;}.line{fill:none;stroke:#bcbcbc;stroke-width:1.3;stroke-linecap:round;stroke-linejoin:round;}</style>
<rect x="0" y="0" width="1000" height="750" rx="0" fill="#ffffff"/>
<rect x="0" y="10" width="980" height="740" rx="44" fill="#fafafa"/>
<rect x="339" y="47" width="322" height="49" rx="24.5" fill="#ffffff"/>
<text x="500" y="78" font-size="17" font-weight="700" style="fill:#151515">Mutable State</text>
<rect x="76" y="152" width="398" height="532" rx="24" fill="#f1f1f1"/>
<text x="275" y="202" font-size="17" style="fill:#151515">Talent State</text>
<path class="line" d="M108 224 H442" stroke-width="1"/>
<text x="120" y="265" font-size="15" style="text-anchor:start">프로필 · 경력</text>
<text x="120" y="309" font-size="15" style="text-anchor:start">프로젝트 · 성과</text>
<text x="120" y="353" font-size="15" style="text-anchor:start">기술 · 논문</text>
<text x="120" y="397" font-size="15" style="text-anchor:start">GitHub · SNS · 포트폴리오</text>
<text x="120" y="441" font-size="15" style="text-anchor:start">조건 · 선호</text>
<text x="120" y="485" font-size="15" style="text-anchor:start">이직 동기 · 선택의 이유</text>
<text x="120" y="529" font-size="15" style="text-anchor:start">경력 공백의 맥락</text>
<text x="120" y="573" font-size="15" style="text-anchor:start">비자 · 가용 시점</text>
<text x="120" y="617" font-size="15" style="text-anchor:start">추천 · 지원 · 연락 이력</text>
<rect x="526" y="152" width="398" height="532" rx="24" fill="#f1f1f1"/>
<text x="725" y="202" font-size="17" style="fill:#151515">Company State</text>
<path class="line" d="M558 224 H892" stroke-width="1"/>
<text x="570" y="265" font-size="15" style="text-anchor:start">제품 · 시장</text>
<text x="570" y="309" font-size="15" style="text-anchor:start">팀원 · 조직</text>
<text x="570" y="353" font-size="15" style="text-anchor:start">Role · 채용 배경</text>
<text x="570" y="397" font-size="15" style="text-anchor:start">필요 역량 · 성공 기준</text>
<text x="570" y="441" font-size="15" style="text-anchor:start">보상 · 근무 형태</text>
<text x="570" y="485" font-size="15" style="text-anchor:start">면접 · 의사결정</text>
<text x="570" y="529" font-size="15" style="text-anchor:start">후보자 피드백</text>
<text x="570" y="573" font-size="15" style="text-anchor:start">채용 이력 · 계획</text>
<text x="570" y="617" font-size="15" style="text-anchor:start">사업 변화 · 우선순위</text>
</svg>
