<svg width="72" height="40" viewBox="0 0 72 40" fill="none" xmlns="http://www.w3.org/2000/svg">
<path d="M13.511 32.2918C11.1416 32.0198 8.75054 30.7125 7.24694 28.8666C5.98274 27.3146 5.29514 25.6648 5.09594 23.7039C4.97894 22.5561 5.08514 21.551 5.46314 20.239C5.79494 19.087 6.35774 17.9889 7.13054 16.9863C7.26734 16.8097 8.51714 15.5854 8.73074 15.4195C10.9075 13.7294 13.9255 13.0497 16.6802 13.6292C17.7739 13.8598 18.8809 14.3095 19.8283 14.9081C20.0071 15.0207 20.1817 15.1131 20.2159 15.1131C20.2555 15.1131 20.2789 14.9033 20.2789 14.5501V13.9872H22.2889H24.2996L24.284 22.9501L24.269 31.9131L22.274 31.9285L20.2789 31.9445V31.2915C20.2789 30.9193 20.2543 30.639 20.2219 30.639C20.1907 30.639 20.048 30.7172 19.9052 30.8121C19.1558 31.3116 17.9071 31.8609 17.0671 32.0595C15.9145 32.3326 14.6096 32.418 13.511 32.2918ZM15.959 28.2752C17.0972 27.9884 17.7583 27.6156 18.5995 26.7872C19.1167 26.2781 19.2901 26.0601 19.5517 25.5872C19.7275 25.2689 19.9357 24.8109 20.0137 24.5685C20.8663 21.9155 19.6015 19.0698 17.0389 17.8764C16.3657 17.5629 15.8941 17.4343 15.1873 17.3721C14.0971 17.2761 13.124 17.4621 12.143 17.954C9.14654 19.4562 8.13674 23.1866 9.98054 25.9404C10.5415 26.7777 11.5555 27.6198 12.4501 27.9907C12.7561 28.1169 13.4485 28.3001 14.0389 28.4103C14.3473 28.4678 15.5228 28.3854 15.959 28.2752ZM40.7768 32.2924C38.4674 31.9593 36.2936 30.7534 34.8632 29.0118C34.376 28.418 34.1996 28.1472 33.8198 27.4094C33.1142 26.0405 32.816 24.7409 32.846 23.1724C32.8736 21.7525 33.134 20.6924 33.785 19.3484C34.2818 18.3238 34.0784 18.6041 40.3922 10.2687L42.4231 7.58713H44.7914C46.0934 7.58713 47.159 7.60135 47.159 7.61913C47.159 7.65765 46.7828 8.14357 44.819 10.642C43.9772 11.7122 43.0862 12.8464 42.839 13.1623C42.5918 13.4781 42.299 13.8461 42.1892 13.9807C42.0488 14.1513 42.0127 14.2319 42.0691 14.2497C42.1129 14.2633 42.5408 14.2888 43.019 14.3054C47.2076 14.4524 50.7476 17.6405 51.4508 21.8983C51.554 22.5252 51.5666 23.9469 51.4742 24.5537C51.0434 27.3756 49.4258 29.7264 46.943 31.1386C45.9944 31.6778 44.6342 32.1312 43.469 32.2959C42.9698 32.3664 41.2754 32.3641 40.7768 32.2924ZM42.77 28.7404C43.6256 28.6343 44.4506 28.3338 45.1166 27.8858C45.5402 27.6002 45.6134 27.5421 45.8684 27.2897C47.2736 25.8995 47.8046 23.9593 47.333 21.9386C47.27 21.6672 47.1644 21.3288 47.0984 21.186C47.033 21.0438 46.979 20.9027 46.979 20.8725C46.979 20.8429 46.7852 20.5318 46.5488 20.1815C45.3644 18.4263 43.3376 17.5836 41.1884 17.9534C38.5964 18.399 36.7706 20.8144 36.9212 23.5978C36.9746 24.5815 37.2104 25.3916 37.6916 26.2497C38.069 26.9211 38.8075 27.6701 39.4399 28.0221C39.5767 28.098 39.7435 28.1952 39.8107 28.2372C40.0285 28.3741 40.9988 28.6764 41.399 28.7326C41.9468 28.8097 42.2 28.8109 42.77 28.7404ZM26.939 21.5724V11.202H25.6556C24.6817 11.202 24.3656 11.1842 24.347 11.1279C24.3332 11.087 24.3236 10.2805 24.326 9.33528L24.3302 7.61676L27.6446 7.60135L30.959 7.58594V19.7644V31.9427H28.9489H26.939V21.5724ZM53.0792 31.9036C53.057 31.8817 53.039 31.0716 53.039 30.1039V28.3439L53.7313 27.5214C55.3891 25.5522 56.0989 24.7066 57.3601 23.202C58.0975 22.322 58.9478 21.3086 59.2502 20.9501C59.552 20.5916 60.0667 19.9771 60.3937 19.5842C60.7213 19.1913 61.202 18.6183 61.4618 18.3101L61.9346 17.7501L57.5018 17.7205L53.069 17.6909V15.9131V14.1353L59.9539 14.1205L66.8389 14.1051V15.9149V17.7241L64.6082 20.3741C63.3806 21.8319 61.5806 23.9712 60.608 25.1279C59.6348 26.2846 58.6406 27.4627 58.3988 27.7454C58.157 28.0275 57.959 28.2746 57.959 28.2935C57.959 28.3125 59.9708 28.3279 62.4296 28.3279H66.9008L66.8845 30.1205L66.869 31.9131L59.9942 31.9279C56.213 31.9362 53.1014 31.9255 53.0792 31.9036Z" fill="#2E1706"/>
</svg>
