<svg width="88" height="38" viewBox="0 0 88 38" fill="none" xmlns="http://www.w3.org/2000/svg">
<g clip-path="url(#clip0_1905_4405)">
<path d="M78.9153 11.46C78.9549 10.8697 79.4514 10.1883 80.3522 10.1883C81.3453 10.1883 81.7633 10.8178 81.7891 11.46H78.9153ZM80.3264 8.77148C78.6802 8.77148 77.1641 10.1097 77.1641 12.1687C77.1641 14.3461 78.7191 15.6178 80.4829 15.6178C82.0638 15.6178 83.0827 14.6868 83.4095 13.5722L81.9594 13.1396C81.7501 13.7166 81.3063 14.1232 80.4961 14.1232C79.6337 14.1232 78.9153 13.5063 78.8763 12.6538H83.4749L83.5013 12.1161C83.5013 10.0439 82.3121 8.77148 80.3264 8.77148Z" fill="#2E1706"/>
<mask id="mask0_1905_4405" style="mask-type:luminance" maskUnits="userSpaceOnUse" x="0" y="0" width="47" height="27">
<path d="M0 0H46.1899V26.8014H0V0Z" fill="white"/>
</mask>
<g mask="url(#mask0_1905_4405)">
<path d="M41.2325 23.0844C41.2488 21.8532 42.1345 20.9298 43.3055 20.9298C44.5759 20.9298 45.3685 21.7544 45.3823 23.0844H41.2325ZM46.1781 23.6525L46.1875 23.2661C46.1875 21.439 45.0504 20.2578 43.2917 20.2578C41.8611 20.2578 40.3808 21.4738 40.3808 23.5093C40.3808 25.7716 41.9742 26.8014 43.4557 26.8014C44.6689 26.8014 45.6557 26.1757 46.0951 25.1269L46.1096 25.092L45.4389 24.859L45.4263 24.8881C45.0693 25.6994 44.3885 26.1282 43.4564 26.1282C42.12 26.1282 41.218 25.1478 41.2036 23.6848H46.1768L46.1787 23.6512L46.1781 23.6525ZM9.34883 0L-0.015625 16.3501V19.9304L11.3992 0H9.34883Z" fill="#2E1706"/>
</g>
<path d="M36.137 14.0247V11.5211H36.9497C37.6386 11.5211 37.9278 11.5762 38.2169 11.7422C38.5614 11.9493 38.7405 12.2957 38.7405 12.7929C38.7405 13.2349 38.589 13.5674 38.2854 13.7745C38.0101 13.9683 37.7071 14.0241 37.0597 14.0241L36.137 14.0247ZM36.137 7.63625H36.7982C37.3357 7.63625 37.721 7.69135 37.9831 7.81612C38.3137 7.98205 38.5337 8.38295 38.5337 8.85289C38.5337 9.71042 38.0101 10.1113 36.8944 10.1113H36.137V7.63625ZM39.6915 14.9798C40.2837 14.5782 40.6419 13.8182 40.6419 12.9613C40.6419 12.2558 40.4075 11.689 39.9807 11.3014C39.6915 11.0385 39.4433 10.9283 38.892 10.8036C39.3879 10.6376 39.5941 10.5135 39.8569 10.2507C40.2428 9.83582 40.4351 9.31015 40.4351 8.67429C40.4351 7.85855 40.1177 7.15302 39.5533 6.72489C39.0711 6.36579 38.3414 6.19922 37.2118 6.19922H34.25V15.4218H37.6393C38.645 15.4218 39.2094 15.2977 39.6915 14.9798ZM87.793 8.79779C87.407 8.79779 87.0355 8.90862 86.7596 9.10179C86.4981 9.29495 86.373 9.48939 86.1945 9.95932V9.01882H84.4446V15.4212H86.1945V12.3375C86.1945 11.7289 86.2498 11.4527 86.456 11.1627C86.7043 10.8029 87.1449 10.5819 87.6276 10.5819L87.9991 10.6098V8.81235C87.903 8.79842 87.8338 8.79842 87.7923 8.79842M65.2053 21.3802V20.3732H64.4591V26.6945H65.2053V23.398C65.2053 22.5063 65.3624 22.018 65.8055 21.5329C66.1286 21.1833 66.5253 21.0142 67.0533 21.0002H67.3179V20.2649H67.0124C66.5378 20.2649 66.0595 20.4201 65.7314 20.681C65.4994 20.8748 65.3681 21.0452 65.2053 21.3802Z" fill="#2E1706"/>
<path d="M68.8404 11.6186C68.8404 10.7338 69.1842 10.2772 69.8455 10.2772C70.4791 10.2772 70.8104 10.7338 70.8104 11.6186V15.4217H72.5603V11.5635C72.5603 10.7477 72.9324 10.2772 73.5798 10.2772C74.2411 10.2772 74.5573 10.692 74.5573 11.5635V15.4217H76.3066V11.2322C76.3066 10.2645 76.1828 9.82181 75.7968 9.39304C75.4385 9.00607 74.9011 8.79834 74.2537 8.79834C73.3448 8.79834 72.752 9.13084 72.3246 9.86361C72.0216 9.17201 71.4157 8.79834 70.5891 8.79834C69.7764 8.79834 69.2389 9.11691 68.8398 9.82117V9.01874H67.0898V15.4211H68.8398V11.6179" fill="#2E1706"/>
<mask id="mask1_1905_4405" style="mask-type:luminance" maskUnits="userSpaceOnUse" x="0" y="0" width="67" height="38">
<path d="M0 0H66.2357V37.8917H0V0Z" fill="white"/>
</mask>
<g mask="url(#mask1_1905_4405)">
<path d="M63.0854 10.1878C64.0785 10.1878 64.4965 10.8173 64.5223 11.4595H61.6485C61.6881 10.8693 62.184 10.1878 63.0854 10.1878ZM63.2155 15.6174C64.7964 15.6174 65.8153 14.6864 66.1421 13.5717L64.692 13.1391C64.4827 13.7161 64.0389 14.1227 63.2287 14.1227C62.3663 14.1227 61.6479 13.5058 61.6089 12.6534H66.2081L66.2339 12.1157C66.2339 10.0434 65.0447 8.77103 63.059 8.77103C61.4128 8.77103 59.8973 10.1093 59.8973 12.1682C59.8973 14.3456 61.4517 15.6174 63.2155 15.6174ZM19.7247 0L-0.015625 34.3222V37.8911L19.7247 3.56883L23.8845 10.8015L8.32363 37.8904H10.3759L19.7278 21.6093L23.8845 28.8363L18.6951 37.8904H20.7461L25.9368 28.835L20.7536 19.824L25.9368 10.8015L19.7247 0Z" fill="#2E1706"/>
</g>
<path d="M50.9966 14.3424C50.4868 14.3424 50.2391 14.0935 50.1562 13.5406H48.4754C48.5439 14.8681 49.4666 15.642 50.9821 15.642C52.4693 15.642 53.4618 14.8124 53.4618 13.5679C53.4618 12.5311 52.8967 11.9636 51.4642 11.5209C50.5823 11.2448 50.5685 11.2448 50.3755 11.0922C50.2655 11.0092 50.1964 10.8433 50.1964 10.6773C50.1964 10.3315 50.4717 10.0972 50.8985 10.0972C51.3668 10.0972 51.7119 10.3733 51.7119 10.7609V10.8718H53.365C53.3235 9.57153 52.4423 8.7976 50.9815 8.7976C49.4943 8.7976 48.5156 9.61333 48.5156 10.83C48.5156 11.8401 49.1354 12.4614 50.5132 12.8769C51.4498 13.167 51.698 13.3475 51.698 13.7344C51.698 14.0935 51.4095 14.3424 50.9966 14.3424ZM56.7675 14.3431C56.2577 14.3431 56.01 14.0942 55.9271 13.5413H54.2463C54.3148 14.8687 55.2375 15.6427 56.753 15.6427C58.2402 15.6427 59.2327 14.813 59.2327 13.5685C59.2327 12.5317 58.6676 11.9643 57.2351 11.5216C56.3532 11.2454 56.3394 11.2454 56.1464 11.0928C56.0364 11.0098 55.9673 10.8439 55.9673 10.678C55.9673 10.3322 56.2426 10.0978 56.6694 10.0978C57.1377 10.0978 57.4822 10.374 57.4822 10.7616V10.8724H59.1353C59.0944 9.57216 58.2126 8.79823 56.7518 8.79823C55.2646 8.79823 54.2859 9.61396 54.2859 10.8306C54.2859 11.8408 54.9056 12.4621 56.2835 12.8775C57.22 13.1676 57.4683 13.3481 57.4683 13.7351C57.4683 14.0942 57.1792 14.3431 56.7662 14.3431M70.7513 31.8788C70.5194 32.0726 70.388 32.243 70.2258 32.578V31.5716H69.4803V37.8929H70.2258V34.5964C70.2258 33.7047 70.383 33.2164 70.8261 32.7313C71.1486 32.381 71.5452 32.2119 72.0732 32.1986H72.3384V31.4633H72.033C71.5584 31.4633 71.0794 31.6185 70.7513 31.8788ZM56.7404 26.6494V26.042L56.7159 26.0021L56.67 26.0179C56.4199 26.1047 56.1571 26.1484 55.8931 26.1478C55.3148 26.1478 55.0087 25.7823 55.0087 25.0914V21.0241H56.6562V20.3724H55.0087V18.8556H54.2639V20.3724H53.3374V21.0235H54.2639V25.1382C54.2639 26.1927 54.8447 26.7976 55.8567 26.7976C56.2652 26.7976 56.5142 26.7292 56.7172 26.6576L56.7398 26.6487M54.9157 37.2153C54.6659 37.3018 54.4036 37.3457 54.1394 37.3451C53.5611 37.3451 53.255 36.9797 53.255 36.2881V32.2208H54.9025V31.5704H53.255V30.0516H52.5102V31.5685H51.5836V32.2189H52.5102V36.3337C52.5102 37.3882 53.091 37.993 54.1036 37.993C54.3965 37.9993 54.6875 37.9518 54.9635 37.853L54.9861 37.8448V37.2374L54.961 37.1975L54.9151 37.2127M59.2095 31.4608C58.8008 31.4549 58.3958 31.5401 58.0236 31.7103C57.6514 31.8806 57.3212 32.1317 57.0566 32.4456V31.5685H56.3105V37.8898H57.0566V34.0226C57.0566 33.4298 57.176 33.1151 57.5482 32.7281C57.9052 32.3563 58.283 32.1252 59.0574 32.1252L59.1774 32.1271C59.9078 32.1492 60.6872 32.6002 60.6835 33.8041V37.8891H61.4302V33.7839C61.4466 33.0885 61.2517 32.5267 60.8507 32.115C60.4496 31.7034 59.8374 31.4595 59.2088 31.4595M63.0896 20.3699H62.3467V24.2161C62.3467 24.8602 62.2436 25.2142 61.9676 25.5227C61.6483 25.8735 61.1021 26.1003 60.5754 26.1003C59.5162 26.1003 58.8053 25.3434 58.8053 24.2167L58.8059 20.3705H58.0611V24.2167C58.0611 25.7627 59.0775 26.8014 60.5911 26.8014C61.2932 26.8014 61.9519 26.5385 62.4435 26.061C62.9212 25.6113 63.0896 25.1287 63.0896 24.2167V20.3705M51.715 26.6912H52.4611V22.5853C52.4775 21.8899 52.2826 21.3281 51.8822 20.9164C51.4818 20.5048 50.8696 20.2609 50.2404 20.2609C49.3868 20.2609 48.6438 20.601 48.0875 21.2464V20.3692H47.342V26.6905H48.0875V22.8234C48.0875 22.2306 48.207 21.9158 48.5791 21.5289C48.9361 21.1571 49.3132 20.9266 50.0883 20.9266L50.2083 20.9285C50.9387 20.9506 51.7188 21.4016 51.715 22.6055V26.6912ZM63.3738 34.281C63.3901 33.0498 64.2758 32.1264 65.4462 32.1264C66.7165 32.1264 67.5098 32.951 67.523 34.281H63.3738ZM65.4323 31.4545C64.0017 31.4545 62.5214 32.6705 62.5214 34.706C62.5214 36.9683 64.1148 37.9981 65.5958 37.9981C66.8089 37.9981 67.7958 37.3723 68.2358 36.3235L68.2502 36.2893L67.5789 36.0563L67.5657 36.0854C67.2087 36.8967 66.5279 37.3255 65.5958 37.3255C64.2594 37.3255 63.3574 36.3451 63.343 34.8821H68.3162L68.3181 34.8491L68.3275 34.4628C68.3275 32.6356 67.1911 31.4545 65.4323 31.4545ZM37.4301 26.6931L40.7163 17.6358L39.8954 17.6117L37.0976 25.3992L34.4092 17.6364L33.5625 17.6237L36.7607 26.6931H37.4301ZM38.8664 32.7034C38.6339 33.0382 38.2962 33.2843 37.9078 33.402C37.586 33.5179 37.2252 33.5647 36.6601 33.5647L35.2754 33.5559V29.5196H36.4036C37.0567 29.5196 37.4458 29.5602 37.8399 29.6691C38.6935 29.9136 39.224 30.6286 39.224 31.5343C39.2278 31.9516 39.1027 32.3595 38.8664 32.7021V32.7034ZM39.0826 29.4873C38.5364 29.0484 37.7532 28.8356 36.6884 28.8356L34.5123 28.8261L34.5028 37.8923H35.276L35.2854 34.25H36.8103C37.8412 34.25 38.4918 34.0834 38.9877 33.6939C39.615 33.2113 39.9752 32.4203 39.9752 31.5229C39.9752 30.6799 39.6578 29.9573 39.0826 29.4873ZM70.6218 20.931C71.8915 20.931 72.6848 21.7556 72.6986 23.0856H68.5494C68.5658 21.8544 69.4514 20.931 70.6218 20.931ZM73.4259 25.0939L72.7546 24.8608L72.7414 24.89C72.3843 25.7013 71.7036 26.13 70.7714 26.13C69.4351 26.13 68.5331 25.1496 68.5186 23.6866H73.4919L73.4938 23.6531L73.5032 23.2667C73.5032 21.4396 72.3661 20.2584 70.6074 20.2584C69.1767 20.2584 67.6964 21.4744 67.6964 23.5099C67.6964 25.7722 69.2899 26.802 70.7708 26.802C71.9839 26.802 72.9702 26.1763 73.4108 25.1275L73.4252 25.0926L73.4259 25.0933V25.0939ZM49.0819 31.8775C48.8494 32.0713 48.7186 32.2417 48.5564 32.5767V31.5704H47.811V37.8917H48.5571V34.5952C48.5571 33.7028 48.7142 33.2145 49.1574 32.73C49.4804 32.3798 49.8771 32.2107 50.4051 32.1974H50.6697V31.4621H50.3642C49.8896 31.4621 49.4107 31.6172 49.0838 31.8775M75.4059 34.3304C74.2682 34.048 73.957 33.7978 73.957 33.1683C73.957 32.5444 74.468 32.1568 75.2896 32.1568C76.1539 32.1568 76.6498 32.5552 76.6498 33.25V33.2848H77.4248L77.423 33.2487C77.3676 32.1302 76.5756 31.4627 75.3028 31.4627C74.0551 31.4627 73.1832 32.1815 73.1832 33.2094C73.1832 33.6623 73.39 34.1252 73.7226 34.4172C74.0425 34.7111 74.436 34.8859 75.1727 35.0645C76.2884 35.3305 76.7032 35.6566 76.7032 36.2672C76.7032 36.8973 76.157 37.3198 75.3436 37.3198C74.4347 37.3198 73.8602 36.8695 73.8074 36.1158L73.8049 36.0829H73.0431L73.0475 36.1215C73.1832 37.3685 73.947 38.0006 75.3154 38.0006C76.6071 38.0006 77.4751 37.3039 77.4751 36.2665C77.4693 35.8151 77.2915 35.3832 76.9786 35.06C76.6592 34.7263 76.2475 34.535 75.4046 34.3304M44.5895 10.1878C45.582 10.1878 46.0007 10.8173 46.0264 11.4595H43.152C43.191 10.8692 43.6882 10.1878 44.5895 10.1878ZM46.1962 13.1391C45.9868 13.7161 45.5424 14.1227 44.7328 14.1227C43.8704 14.1227 43.152 13.5058 43.113 12.6533H47.7116L47.738 12.1156C47.738 10.0434 46.5488 8.771 44.5631 8.771C42.9169 8.771 41.4014 10.1092 41.4014 12.1682C41.4014 14.3456 42.9565 15.6173 44.7203 15.6173C46.3011 15.6173 47.32 14.6863 47.6469 13.5717L46.1962 13.1391ZM43.2796 37.2925C42.057 37.2925 41.1343 36.2089 41.1343 34.7725C41.1343 34.1037 41.3342 33.4425 41.683 32.958C42.0803 32.4133 42.585 32.1701 43.3204 32.1701C44.6763 32.1701 45.5871 33.1613 45.5871 34.6357C45.5871 36.1006 44.5518 37.2925 43.2796 37.2925ZM45.5732 32.6527C44.9843 31.8516 44.2275 31.4627 43.2658 31.4627C41.5554 31.4627 40.3611 32.8073 40.3611 34.7313C40.3611 36.6263 41.5887 38.0012 43.2802 38.0012C44.2256 38.0012 44.9572 37.5528 45.5739 36.5921V37.8923H46.32V31.571H45.5739L45.5732 32.6527Z" fill="#2E1706"/>
</g>
<defs>
<clipPath id="clip0_1905_4405">
<rect width="88" height="38" fill="white"/>
</clipPath>
</defs>
</svg>
