<svg version="1.1" id="Layer_1" xmlns="http://www.w3.org/2000/svg" xmlns:xlink="http://www.w3.org/1999/xlink" x="0px" y="0px" viewBox="0 0 176.7 76" style="enable-background:new 0 0 176.7 76;" xml:space="preserve">
 <style type="text/css">
  .st0{fill:#015089;}
 </style>
 <g>
  <path class="st0" d="M158.5,22.9c0.1-1.2,1.1-2.5,2.9-2.5c2,0,2.8,1.3,2.9,2.5H158.5z M161.3,17.5c-3.3,0-6.3,2.7-6.3,6.8
		c0,4.4,3.1,6.9,6.7,6.9c3.2,0,5.2-1.9,5.9-4.1l-2.9-0.9c-0.4,1.2-1.3,2-2.9,2c-1.7,0-3.2-1.2-3.3-2.9h9.2c0-0.1,0.1-0.6,0.1-1.1
		C167.7,20.1,165.3,17.5,161.3,17.5">
  </path>
  <path class="st0" d="M82.8,46.2c0-2.5,1.8-4.3,4.2-4.3c2.6,0,4.1,1.6,4.2,4.3H82.8z M92.7,47.3c0,0,0-0.4,0-0.8c0-3.7-2.3-6-5.8-6
		c-2.9,0-5.8,2.4-5.8,6.5c0,4.5,3.2,6.6,6.2,6.6c2.4,0,4.4-1.3,5.3-3.3l0-0.1l-1.3-0.5l0,0.1c-0.7,1.6-2.1,2.5-4,2.5
		c-2.7,0-4.5-2-4.5-4.9L92.7,47.3L92.7,47.3z">
  </path>
  <polygon class="st0" points="18.8,0 0,32.7 0,39.9 22.9,0 	">
  </polygon>
  <path class="st0" d="M72.6,28v-5h1.6c1.4,0,2,0.1,2.5,0.4c0.7,0.4,1.1,1.1,1.1,2.1c0,0.9-0.3,1.5-0.9,2c-0.6,0.4-1.2,0.5-2.5,0.5
		H72.6z M72.6,15.3h1.3c1.1,0,1.9,0.1,2.4,0.4c0.7,0.3,1.1,1.1,1.1,2.1c0,1.7-1.1,2.5-3.3,2.5h-1.5V15.3z M79.7,30
		c1.2-0.8,1.9-2.3,1.9-4c0-1.4-0.5-2.5-1.3-3.3c-0.6-0.5-1.1-0.7-2.2-1c1-0.3,1.4-0.6,1.9-1.1c0.8-0.8,1.2-1.9,1.2-3.2
		c0-1.6-0.6-3-1.8-3.9c-1-0.7-2.4-1.1-4.7-1.1h-5.9v18.4h6.8C77.6,30.8,78.7,30.6,79.7,30">
  </path>
  <path class="st0" d="M176.3,17.6c-0.8,0-1.5,0.2-2.1,0.6c-0.5,0.4-0.8,0.8-1.1,1.7V18h-3.5v12.8h3.5v-6.2c0-1.2,0.1-1.8,0.5-2.4
		c0.5-0.7,1.4-1.2,2.4-1.2c0.2,0,0.5,0,0.7,0.1v-3.6C176.5,17.6,176.4,17.6,176.3,17.6">
  </path>
  <path class="st0" d="M130.9,42.8v-2h-1.5v12.6h1.5v-6.6c0-1.8,0.3-2.8,1.2-3.7c0.6-0.7,1.4-1,2.5-1.1h0.5v-1.5h-0.6
		c-1,0-1.9,0.3-2.6,0.8C131.5,41.7,131.3,42.1,130.9,42.8">
  </path>
  <path class="st0" d="M138.2,23.2c0-1.8,0.7-2.7,2-2.7c1.3,0,1.9,0.9,1.9,2.7v7.6h3.5v-7.7c0-1.6,0.7-2.6,2-2.6c1.3,0,2,0.8,2,2.6
		v7.7h3.5v-8.4c0-1.9-0.2-2.8-1-3.7c-0.7-0.8-1.8-1.2-3.1-1.2c-1.8,0-3,0.7-3.9,2.1c-0.6-1.4-1.8-2.1-3.5-2.1c-1.6,0-2.7,0.6-3.5,2
		V18h-3.5v12.8h3.5V23.2z">
  </path>
  <path class="st0" d="M126.7,20.4c2,0,2.8,1.3,2.9,2.5h-5.8C123.9,21.7,124.9,20.4,126.7,20.4 M126.9,31.2c3.2,0,5.2-1.9,5.9-4.1
		l-2.9-0.9c-0.4,1.2-1.3,2-2.9,2c-1.7,0-3.2-1.2-3.3-2.9h9.2c0-0.1,0.1-0.6,0.1-1.1c0-4.1-2.4-6.7-6.4-6.7c-3.3,0-6.3,2.7-6.3,6.8
		C120.3,28.7,123.4,31.2,126.9,31.2">
  </path>
  <polygon class="st0" points="39.6,0 0,68.6 0,75.8 39.6,7.1 48,21.6 16.7,75.8 20.9,75.8 39.6,43.2 48,57.7 37.6,75.8 41.7,75.8 
		52.1,57.7 41.7,39.6 52.1,21.6 	">
  </polygon>
  <path class="st0" d="M102.4,28.7c-1,0-1.5-0.5-1.7-1.6h-3.4c0.1,2.7,2,4.2,5,4.2c3,0,5-1.7,5-4.1c0-2.1-1.1-3.2-4-4.1
		c-1.8-0.6-1.8-0.6-2.2-0.9c-0.2-0.2-0.4-0.5-0.4-0.8c0-0.7,0.6-1.2,1.4-1.2c0.9,0,1.6,0.6,1.6,1.3v0.2h3.3
		c-0.1-2.6-1.9-4.1-4.8-4.1c-3,0-5,1.6-5,4.1c0,2,1.2,3.3,4,4.1c1.9,0.6,2.4,0.9,2.4,1.7C103.8,28.2,103.2,28.7,102.4,28.7">
  </path>
  <path class="st0" d="M114,28.7c-1,0-1.5-0.5-1.7-1.6h-3.4c0.1,2.7,2,4.2,5,4.2c3,0,5-1.7,5-4.1c0-2.1-1.1-3.2-4-4.1
		c-1.8-0.6-1.8-0.6-2.2-0.9c-0.2-0.2-0.4-0.5-0.4-0.8c0-0.7,0.6-1.2,1.4-1.2c0.9,0,1.6,0.6,1.6,1.3v0.2h3.3
		c-0.1-2.6-1.9-4.1-4.8-4.1c-3,0-5,1.6-5,4.1c0,2,1.2,3.3,4,4.1c1.9,0.6,2.4,0.9,2.4,1.7C115.4,28.2,114.8,28.7,114,28.7">
  </path>
  <path class="st0" d="M142.1,63.8c-0.5,0.4-0.7,0.7-1.1,1.4v-2h-1.5v12.6h1.5v-6.6c0-1.8,0.3-2.8,1.2-3.7c0.6-0.7,1.4-1,2.5-1.1h0.5
		v-1.5h-0.6C143.7,62.9,142.7,63.2,142.1,63.8">
  </path>
  <path class="st0" d="M113.9,53.3v-1.2l0-0.1l-0.1,0c-0.4,0.1-0.9,0.3-1.6,0.3c-1.2,0-1.8-0.7-1.8-2.1V42h3.3v-1.3h-3.3v-3H109v3
		h-1.9V42h1.9v8.2c0,2.1,1.2,3.3,3.2,3.3C113,53.6,113.5,53.5,113.9,53.3L113.9,53.3z">
  </path>
  <path class="st0" d="M110.3,74.4c-0.4,0.1-0.9,0.3-1.6,0.3c-1.2,0-1.8-0.7-1.8-2.1v-8.1h3.3v-1.3h-3.3v-3h-1.5v3h-1.9v1.3h1.9v8.2
		c0,2.1,1.2,3.3,3.2,3.3c0.8,0,1.3-0.1,1.7-0.3l0,0v-1.2L110.3,74.4L110.3,74.4z">
  </path>
  <path class="st0" d="M118.9,62.9c-1.7,0-3.2,0.7-4.3,2v-1.8h-1.5v12.6h1.5V68c0-1.2,0.2-1.8,1-2.6c0.7-0.7,1.5-1.2,3-1.2
		c0.1,0,0.2,0,0.2,0c1.5,0,3,0.9,3,3.4v8.2h1.5v-8.2c0-1.4-0.4-2.5-1.2-3.3C121.4,63.4,120.2,62.9,118.9,62.9">
  </path>
  <path class="st0" d="M126.7,40.7h-1.5v7.7c0,1.3-0.2,2-0.8,2.6c-0.6,0.7-1.7,1.2-2.8,1.2c-2.1,0-3.6-1.5-3.6-3.8l0-7.7h-1.5v7.7
		c0,3.1,2,5.2,5.1,5.2c1.4,0,2.7-0.5,3.7-1.5c1-0.9,1.3-1.9,1.3-3.7V40.7z">
  </path>
  <path class="st0" d="M103.9,53.4h1.5v-8.2c0-1.4-0.4-2.5-1.2-3.3c-0.8-0.8-2-1.3-3.3-1.3c-1.7,0-3.2,0.7-4.3,2v-1.8h-1.5v12.6h1.5
		v-7.7c0-1.2,0.2-1.8,1-2.6c0.7-0.7,1.5-1.2,3-1.2c0.1,0,0.2,0,0.2,0c1.5,0,3,0.9,3,3.4V53.4z">
  </path>
  <path class="st0" d="M127.3,68.6c0-2.5,1.8-4.3,4.2-4.3c2.5,0,4.1,1.6,4.2,4.3H127.3z M131.4,62.9c-2.9,0-5.8,2.4-5.8,6.5
		c0,4.5,3.2,6.6,6.2,6.6c2.4,0,4.4-1.3,5.3-3.3l0-0.1l-1.3-0.5l0,0.1c-0.7,1.6-2.1,2.5-4,2.5c-2.7,0-4.5-2-4.5-4.9h10l0-0.1
		c0,0,0-0.4,0-0.8C137.2,65.3,134.9,62.9,131.4,62.9">
  </path>
  <polygon class="st0" points="75.2,53.4 81.8,35.3 80.1,35.2 74.5,50.8 69.1,35.3 67.4,35.2 73.8,53.4 	">
  </polygon>
  <path class="st0" d="M78.1,65.4c-0.5,0.7-1.1,1.2-1.9,1.4c-0.6,0.2-1.4,0.3-2.5,0.3l-2.8,0V59h2.3c1.3,0,2.1,0.1,2.9,0.3
		c1.7,0.5,2.8,1.9,2.8,3.7C78.8,63.9,78.5,64.7,78.1,65.4 M78.5,59c-1.1-0.9-2.7-1.3-4.8-1.3l-4.4,0l0,18.1h1.6l0-7.3h3.1
		c2.1,0,3.4-0.3,4.4-1.1c1.3-1,2-2.5,2-4.3C80.3,61.4,79.6,59.9,78.5,59">
  </path>
  <path class="st0" d="M141.8,41.9c2.5,0,4.1,1.6,4.2,4.3h-8.3C137.7,43.7,139.5,41.9,141.8,41.9 M147.4,50.2l-1.3-0.5l0,0.1
		c-0.7,1.6-2.1,2.5-4,2.5c-2.7,0-4.5-2-4.5-4.9h10l0-0.1c0,0,0-0.4,0-0.8c0-3.7-2.3-6-5.8-6c-2.9,0-5.8,2.4-5.8,6.5
		c0,4.5,3.2,6.6,6.2,6.6C144.5,53.6,146.5,52.4,147.4,50.2L147.4,50.2z">
  </path>
  <path class="st0" d="M98.6,63.8c-0.5,0.4-0.7,0.7-1.1,1.4v-2H96v12.6h1.5v-6.6c0-1.8,0.3-2.8,1.2-3.7c0.6-0.7,1.4-1,2.5-1.1h0.5
		v-1.5h-0.6C100.2,62.9,99.2,63.2,98.6,63.8">
  </path>
  <path class="st0" d="M151.4,68.7c-2.3-0.6-2.9-1.1-2.9-2.3c0-1.2,1-2,2.7-2c1.7,0,2.7,0.8,2.7,2.2v0.1h1.6l0-0.1
		c-0.1-2.2-1.7-3.6-4.3-3.6c-2.5,0-4.3,1.4-4.3,3.5c0,0.9,0.4,1.8,1.1,2.4c0.6,0.6,1.4,0.9,2.9,1.3c2.2,0.5,3.1,1.2,3.1,2.4
		c0,1.3-1.1,2.1-2.7,2.1c-1.8,0-3-0.9-3.1-2.4l0-0.1h-1.5l0,0.1c0.3,2.5,1.8,3.8,4.6,3.8c2.6,0,4.3-1.4,4.3-3.5c0-0.9-0.4-1.8-1-2.4
		C153.9,69.5,153.1,69.1,151.4,68.7">
  </path>
  <path class="st0" d="M89.5,20.4c2,0,2.8,1.3,2.9,2.5h-5.8C86.7,21.7,87.7,20.4,89.5,20.4 M92.8,26.3c-0.4,1.2-1.3,2-2.9,2
		c-1.7,0-3.2-1.2-3.3-2.9h9.2c0-0.1,0.1-0.6,0.1-1.1c0-4.1-2.4-6.7-6.4-6.7c-3.3,0-6.3,2.7-6.3,6.8c0,4.4,3.1,6.9,6.7,6.9
		c3.2,0,5.2-1.9,5.9-4.1L92.8,26.3z">
  </path>
  <path class="st0" d="M86.9,74.6c-2.5,0-4.3-2.2-4.3-5c0-1.3,0.4-2.7,1.1-3.6c0.8-1.1,1.8-1.6,3.3-1.6c2.7,0,4.6,2,4.6,4.9
		C91.6,72.2,89.5,74.6,86.9,74.6 M91.5,65.3c-1.2-1.6-2.7-2.4-4.6-2.4c-3.4,0-5.8,2.7-5.8,6.5c0,3.8,2.5,6.5,5.9,6.5
		c1.9,0,3.4-0.9,4.6-2.8v2.6H93V63.1h-1.5V65.3z">
  </path>
 </g>
</svg>