<svg width="118" height="20" viewBox="0 0 118 20" xmlns="http://www.w3.org/2000/svg">
    <defs>
        <clipPath id="clip0_3176_6183">
            <path fill="#000000" stroke="none" d="M 0.5 0 L 20.006 0 L 20.006 20 L 0.5 20 Z"/>
        </clipPath>
    </defs>
    <g clip-path="url(#clip0_3176_6183)">
        <path fill="#355146" fill-rule="evenodd" stroke="none" d="M 6.82 11.908 C 7.345 11.908 8.39 11.878 9.833 11.269 C 11.515 10.559 14.862 9.269 17.276 7.946 C 18.965 7.02 19.705 5.7950006 19.705 4.146 C 19.705 1.856 17.895 0 15.662 0 L 6.307 0 C 3.1 0 0.5 2.666 0.5 5.954 C 0.5 9.242 2.934 11.908 6.82 11.908"/>
        <path fill="#d18ee2" fill-rule="evenodd" stroke="none" d="M 8.402 16.01 C 8.402 14.399 9.349 12.946001 10.801 12.328 L 13.747001 11.074 C 16.727 9.806 20.007 12.050999 20.007 15.36 C 20.007 17.923 17.98 20 15.48 20 L 12.289999 19.998 C 10.143 19.998 8.402 18.213 8.402 16.011"/>
        <path fill="#ff7759" stroke="none" d="M 3.848 12.691 C 1.998 12.691 0.5 14.228 0.5 16.124 L 0.5 16.568 C 0.5 18.464 1.999 20 3.848 20 C 5.6970005 20 7.195 18.464 7.195 16.568 L 7.195 16.124 C 7.195 14.228 5.696 12.691 3.848 12.691"/>
    </g>
    <path fill="#355146" stroke="none" d="M 33.186 19.996 C 36.083 19.996 38.619 18.511 39.622 15.510999 C 39.816 14.911 39.537 14.510999 38.981 14.510999 L 37.894 14.510999 C 37.393 14.510999 37.058 14.74 36.834 15.225001 C 35.971 16.969 34.772 17.595 33.269 17.595 C 30.593 17.595 28.949 15.681 28.949 12.482 C 28.949 9.283 30.65 7.37 33.212 7.37 C 34.773 7.37 36.055 8.055 36.862 9.684 C 37.115 10.169 37.419 10.397 37.922 10.397 L 39.009 10.397 C 39.566 10.397 39.845 10.027 39.65 9.482 C 38.48 6.225 35.86 4.969 33.187 4.969 C 29.147001 4.969 26.137 8.027 26.137 12.483001 C 26.137 16.939 29.007 19.997 33.187 19.997 M 106.09899 11.169 C 106.46 8.74 108.076004 7.227 110.278 7.227 C 112.48 7.227 114.123 8.769 114.317 11.169 Z M 110.38999 19.997 C 112.953 19.997 115.517 18.77 116.771 15.998001 C 117.077 15.341 116.798 14.884 116.24199 14.884 L 115.212 14.884 C 114.711 14.884 114.40401 15.111 114.152 15.568999 C 113.31699 17.082 111.868 17.711 110.392006 17.711 C 107.856 17.711 106.213 15.94 106.018 13.056 L 116.243996 13.056 C 116.8 13.056 117.164 12.740999 117.164 12.141 C 117.05201 7.656 114.211 4.971 110.282 4.971 C 106.352 4.971 103.233 7.886 103.233 12.485 C 103.233 17.084 106.27 19.999 110.394 19.999 Z M 94.174 12.856 L 95.09401 12.856 C 95.651 12.856 95.957 12.542 96.04201 11.941 C 96.572 8.081 98.776 7.569 101.119 7.684 C 101.36008 7.695982 101.5953 7.607271 101.768425 7.4390764 C 101.94154 7.270882 102.037025 7.0383224 102.032 6.7969995 L 102.032 5.913 C 102.032 5.343 101.752 4.997 101.196 4.969 C 99.122 4.889 97.272 5.6189995 96.20301 7.684 C 96.17786 7.734122 96.12261 7.761594 96.067474 7.7513995 C 96.01233 7.741205 95.97057 7.6957984 95.965 7.64 L 95.79199 6.082 Q 95.71001 5.226 94.872 5.225 L 90.66601 5.225 C 90.16696 5.231587 89.76744 5.6409416 89.773 6.14 L 89.773 6.626 C 89.773 7.13 90.173 7.541 90.66601 7.541 L 92.393 7.541 C 92.885 7.541 93.286 7.951 93.286 8.456 L 93.286 11.941 C 93.286 12.445 93.685005 12.856 94.17799 12.856 Z M 90.414 19.713 L 99.134 19.713 C 99.69 19.713 100.026 19.37 100.026 18.798 L 100.026 18.312 C 100.026 17.742 99.692 17.397 99.134 17.397 L 96.904 17.397 C 96.348 17.397 96.012 17.054 96.012 16.482 L 96.012 14.909999 C 96.012 14.34 95.678 13.995 95.12 13.995 L 94.172 13.995 C 93.616 13.995 93.28 14.337 93.28 14.909999 L 93.28 16.482 C 93.28 17.052 92.946 17.397 92.388 17.397 L 90.41 17.397 C 89.854 17.397 89.517 17.74 89.517 18.312 L 89.517 18.798 C 89.517 19.368 89.852 19.713 90.41 19.713 Z M 76.955 11.170001 C 77.317 8.741 78.933 7.228 81.135 7.228 C 83.337 7.228 84.98 8.77 85.175 11.170001 Z M 81.247 19.998 C 83.81 19.998 86.37299 18.77 87.627 15.998999 C 87.934006 15.342001 87.65499 14.884999 87.09901 14.884999 L 86.069 14.884999 C 85.567 14.884999 85.261 15.112 85.009 15.57 C 84.174 17.084 82.725 17.712 81.249 17.712 C 78.713 17.712 77.069 15.941 76.875 13.056999 L 87.1 13.056999 C 87.656 13.056999 88.02 12.742 88.02 12.142 C 87.908 7.6570005 85.067 4.972 81.137 4.972 C 77.208 4.972 74.088 7.887 74.088 12.486001 C 74.088 17.085 77.126 20 81.251 20 Z M 49.011997 19.998 C 53.192 19.998 56.173 16.828 56.173 12.484 C 56.173 8.141 53.191006 4.97 49.013 4.97 C 44.833 4.97 41.851 8.2 41.851 12.484 C 41.851 13.484 42.018 14.598 42.519 15.826 C 42.771 16.426 43.245 16.511 43.746 16.14 L 44.554 15.54 C 44.973 15.225001 45.082996 14.854001 44.944 14.312 C 44.754185 13.702171 44.659737 13.066672 44.664 12.428 C 44.664 9.428 46.419 7.371 49.01 7.371 C 51.601 7.371 53.356003 9.398 53.356003 12.484 C 53.356003 15.57 51.628998 17.598 49.065998 17.598 C 48.173 17.598 47.337 17.426 46.335003 16.654 C 45.916 16.312 45.527 16.255 45.081 16.598 L 44.467 17.055 C 43.967003 17.426 43.911 17.94 44.383003 18.341 C 45.68272 19.418491 47.319748 20.004988 49.008 19.998 Z M 59.71 19.712 L 60.63 19.712 C 61.121 19.712 61.521996 19.302 61.521996 18.797 L 61.521996 11.97 C 61.521996 9.086 63.026 7.37 65.367 7.37 C 67.484 7.37 68.711 8.8 68.711 11.428 L 68.711 18.798 C 68.711 19.303 69.111 19.714 69.603 19.714 L 70.551 19.714 C 71.042 19.714 71.443 19.304 71.443 18.799 L 71.443 10.97 C 71.443 7.114 69.521 4.971 66.262 4.971 C 64.042 4.971 62.731995 5.902 61.752 7.198 C 61.677 7.298 61.526 7.2430005 61.526 7.12 L 61.526 0.915 C 61.52 0.409 61.121 0 60.63 0 L 59.71 0 C 59.210953 0.00658681 58.811443 0.4159415 58.817005 0.915 L 58.817005 18.797 C 58.817005 19.301 59.217 19.712 59.71 19.712"/>
</svg>
