<svg width="148" height="38" viewBox="0 0 148 38" fill="none" xmlns="http://www.w3.org/2000/svg">
<rect x="0.5" y="0.5" width="147" height="37" rx="8" fill="white" fill-opacity="0.05"/>
<rect x="0.5" y="0.5" width="147" height="37" rx="8" stroke="#5B606A" stroke-dasharray="6 4"/>
<path d="M30.7085 19H38.2918" stroke="white" stroke-width="1.4" stroke-linecap="round" stroke-linejoin="round"/>
<path d="M34.5 15.208V22.7913" stroke="white" stroke-width="1.4" stroke-linecap="round" stroke-linejoin="round"/>
<path d="M45.1051 16.016H45.7531V17.336C45.7531 17.7307 45.7184 18.12 45.6491 18.504C45.5797 18.8827 45.4731 19.24 45.3291 19.576C45.1904 19.9067 45.0144 20.208 44.8011 20.48C44.5931 20.7467 44.3504 20.9627 44.0731 21.128L43.5451 20.504C43.8117 20.3493 44.0411 20.1573 44.2331 19.928C44.4251 19.6987 44.5851 19.4427 44.7131 19.16C44.8464 18.8773 44.9451 18.5813 45.0091 18.272C45.0731 17.9573 45.1051 17.6453 45.1051 17.336V16.016ZM45.2651 16.016H45.9211V17.28C45.9211 17.584 45.9477 17.888 46.0011 18.192C46.0597 18.4907 46.1477 18.7707 46.2651 19.032C46.3877 19.2933 46.5397 19.5333 46.7211 19.752C46.9077 19.9653 47.1237 20.1387 47.3691 20.272L46.8811 20.936C46.5984 20.776 46.3557 20.5707 46.1531 20.32C45.9504 20.064 45.7824 19.776 45.6491 19.456C45.5211 19.1307 45.4251 18.784 45.3611 18.416C45.2971 18.0427 45.2651 17.664 45.2651 17.28V16.016ZM49.0971 15.344H49.8971V22.656H49.0971V15.344ZM48.0571 18.24H49.3771V18.928H48.0571V18.24ZM47.5051 15.488H48.2891V22.312H47.5051V15.488ZM54.544 22L52.9304 16.1818H53.8537L54.9872 20.6875H55.0412L56.2202 16.1818H57.1349L58.3139 20.6903H58.3679L59.4986 16.1818H60.4247L58.8082 22H57.9247L56.7003 17.642H56.6548L55.4304 22H54.544ZM62.5653 22.0881C62.1563 22.0881 61.7992 21.9943 61.4943 21.8068C61.1894 21.6193 60.9527 21.357 60.7841 21.0199C60.6155 20.6828 60.5312 20.2888 60.5312 19.8381C60.5312 19.3854 60.6155 18.9896 60.7841 18.6506C60.9527 18.3116 61.1894 18.0483 61.4943 17.8608C61.7992 17.6733 62.1563 17.5795 62.5653 17.5795C62.9744 17.5795 63.3314 17.6733 63.6364 17.8608C63.9413 18.0483 64.178 18.3116 64.3466 18.6506C64.5152 18.9896 64.5994 19.3854 64.5994 19.8381C64.5994 20.2888 64.5152 20.6828 64.3466 21.0199C64.178 21.357 63.9413 21.6193 63.6364 21.8068C63.3314 21.9943 62.9744 22.0881 62.5653 22.0881ZM62.5682 21.375C62.8333 21.375 63.053 21.3049 63.2273 21.1648C63.4015 21.0246 63.5303 20.8381 63.6136 20.6051C63.6989 20.3722 63.7415 20.1155 63.7415 19.8352C63.7415 19.5568 63.6989 19.3011 63.6136 19.0682C63.5303 18.8333 63.4015 18.6449 63.2273 18.5028C63.053 18.3608 62.8333 18.2898 62.5682 18.2898C62.3011 18.2898 62.0795 18.3608 61.9034 18.5028C61.7292 18.6449 61.5994 18.8333 61.5142 19.0682C61.4309 19.3011 61.3892 19.5568 61.3892 19.8352C61.3892 20.1155 61.4309 20.3722 61.5142 20.6051C61.5994 20.8381 61.7292 21.0246 61.9034 21.1648C62.0795 21.3049 62.3011 21.375 62.5682 21.375ZM65.5476 22V17.6364H66.3686V18.3295H66.4141C66.4936 18.0947 66.6338 17.91 66.8345 17.7756C67.0372 17.6392 67.2663 17.571 67.522 17.571C67.575 17.571 67.6375 17.5729 67.7095 17.5767C67.7834 17.5805 67.8411 17.5852 67.8828 17.5909V18.4034C67.8487 18.3939 67.7881 18.3835 67.701 18.3722C67.6139 18.3589 67.5268 18.3523 67.4396 18.3523C67.2389 18.3523 67.0599 18.3949 66.9027 18.4801C66.7474 18.5634 66.6243 18.6799 66.5334 18.8295C66.4425 18.9773 66.397 19.1458 66.397 19.3352V22H65.5476ZM69.3991 20.5199L69.3935 19.483H69.5412L71.2798 17.6364H72.2969L70.3139 19.7386H70.1804L69.3991 20.5199ZM68.6179 22V16.1818H69.4673V22H68.6179ZM71.3736 22L69.8111 19.9261L70.3963 19.3324L72.4162 22H71.3736ZM76.3409 18.7017L75.571 18.8381C75.5388 18.7396 75.4877 18.6458 75.4176 18.5568C75.3494 18.4678 75.2566 18.3949 75.1392 18.3381C75.0218 18.2812 74.875 18.2528 74.6989 18.2528C74.4583 18.2528 74.2576 18.3068 74.0966 18.4148C73.9356 18.5208 73.8551 18.6581 73.8551 18.8267C73.8551 18.9725 73.9091 19.09 74.017 19.179C74.125 19.268 74.2992 19.3409 74.5398 19.3977L75.233 19.5568C75.6345 19.6496 75.9337 19.7926 76.1307 19.9858C76.3277 20.179 76.4261 20.4299 76.4261 20.7386C76.4261 21 76.3504 21.233 76.1989 21.4375C76.0492 21.6402 75.84 21.7992 75.571 21.9148C75.304 22.0303 74.9943 22.0881 74.642 22.0881C74.1534 22.0881 73.7547 21.9839 73.446 21.7756C73.1373 21.5653 72.9479 21.267 72.8778 20.8807L73.6989 20.7557C73.75 20.9697 73.8551 21.1316 74.0142 21.2415C74.1733 21.3494 74.3807 21.4034 74.6364 21.4034C74.9148 21.4034 75.1373 21.3456 75.304 21.2301C75.4706 21.1127 75.554 20.9697 75.554 20.8011C75.554 20.6648 75.5028 20.5502 75.4006 20.4574C75.3002 20.3646 75.1458 20.2945 74.9375 20.2472L74.1989 20.0852C73.7917 19.9924 73.4905 19.8447 73.2955 19.642C73.1023 19.4394 73.0057 19.1828 73.0057 18.8722C73.0057 18.6146 73.0777 18.3892 73.2216 18.196C73.3655 18.0028 73.5644 17.8523 73.8182 17.7443C74.072 17.6345 74.3627 17.5795 74.6903 17.5795C75.1619 17.5795 75.5331 17.6818 75.804 17.8864C76.0748 18.089 76.2538 18.3608 76.3409 18.7017ZM77.3601 23.6364V17.6364H78.1896V18.3438H78.2607C78.3099 18.2528 78.3809 18.1477 78.4737 18.0284C78.5665 17.9091 78.6953 17.8049 78.8601 17.7159C79.0249 17.625 79.2427 17.5795 79.5135 17.5795C79.8658 17.5795 80.1802 17.6686 80.4567 17.8466C80.7332 18.0246 80.95 18.2812 81.1072 18.6165C81.2663 18.9517 81.3459 19.3551 81.3459 19.8267C81.3459 20.2983 81.2673 20.7027 81.1101 21.0398C80.9529 21.375 80.737 21.6335 80.4624 21.8153C80.1877 21.9953 79.8743 22.0852 79.522 22.0852C79.2569 22.0852 79.04 22.0407 78.8714 21.9517C78.7048 21.8627 78.5741 21.7585 78.4794 21.6392C78.3847 21.5199 78.3118 21.4138 78.2607 21.321H78.2095V23.6364H77.3601ZM78.1925 19.8182C78.1925 20.125 78.237 20.3939 78.326 20.625C78.415 20.8561 78.5438 21.0369 78.7124 21.1676C78.8809 21.2964 79.0874 21.3608 79.3317 21.3608C79.5855 21.3608 79.7976 21.2936 79.968 21.1591C80.1385 21.0227 80.2673 20.8381 80.3544 20.6051C80.4434 20.3722 80.4879 20.1098 80.4879 19.8182C80.4879 19.5303 80.4444 19.2718 80.3572 19.0426C80.272 18.8134 80.1432 18.6326 79.9709 18.5C79.8004 18.3674 79.5874 18.3011 79.3317 18.3011C79.0855 18.3011 78.8771 18.3646 78.7067 18.4915C78.5381 18.6184 78.4103 18.7955 78.3232 19.0227C78.236 19.25 78.1925 19.5152 78.1925 19.8182ZM83.5675 22.0966C83.291 22.0966 83.041 22.0455 82.8175 21.9432C82.594 21.839 82.4169 21.6884 82.2862 21.4915C82.1574 21.2945 82.093 21.053 82.093 20.767C82.093 20.5208 82.1404 20.3182 82.2351 20.1591C82.3298 20 82.4576 19.8741 82.6186 19.7812C82.7796 19.6884 82.9595 19.6184 83.1584 19.571C83.3572 19.5237 83.5599 19.4877 83.7663 19.4631C84.0277 19.4328 84.2398 19.4081 84.4027 19.3892C84.5656 19.3684 84.6839 19.3352 84.7578 19.2898C84.8317 19.2443 84.8686 19.1705 84.8686 19.0682V19.0483C84.8686 18.8002 84.7985 18.608 84.6584 18.4716C84.5201 18.3352 84.3137 18.267 84.0391 18.267C83.7531 18.267 83.5277 18.3305 83.3629 18.4574C83.2 18.5824 83.0874 18.7216 83.0249 18.875L82.2266 18.6932C82.3213 18.428 82.4595 18.214 82.6413 18.0511C82.825 17.8864 83.0362 17.767 83.2749 17.6932C83.5135 17.6174 83.7644 17.5795 84.0277 17.5795C84.2019 17.5795 84.3866 17.6004 84.5817 17.642C84.7786 17.6818 84.9624 17.7557 85.1328 17.8636C85.3052 17.9716 85.4463 18.1259 85.5561 18.3267C85.666 18.5256 85.7209 18.7841 85.7209 19.1023V22H84.8913V21.4034H84.8572C84.8023 21.5133 84.7199 21.6212 84.6101 21.7273C84.5002 21.8333 84.3591 21.9214 84.1868 21.9915C84.0144 22.0616 83.808 22.0966 83.5675 22.0966ZM83.7521 21.4148C83.987 21.4148 84.1877 21.3684 84.3544 21.2756C84.523 21.1828 84.6508 21.0616 84.7379 20.9119C84.8269 20.7604 84.8714 20.5985 84.8714 20.4261V19.8636C84.8411 19.8939 84.7824 19.9223 84.6953 19.9489C84.6101 19.9735 84.5125 19.9953 84.4027 20.0142C84.2929 20.0312 84.1858 20.0473 84.0817 20.0625C83.9775 20.0758 83.8904 20.0871 83.8203 20.0966C83.6555 20.1174 83.505 20.1525 83.3686 20.2017C83.2341 20.2509 83.1262 20.322 83.0447 20.4148C82.9652 20.5057 82.9254 20.6269 82.9254 20.7784C82.9254 20.9886 83.0031 21.1477 83.1584 21.2557C83.3137 21.3617 83.5116 21.4148 83.7521 21.4148ZM88.6903 22.0881C88.268 22.0881 87.9044 21.9924 87.5994 21.8011C87.2964 21.608 87.0634 21.3419 86.9006 21.0028C86.7377 20.6638 86.6562 20.2756 86.6562 19.8381C86.6562 19.3949 86.7396 19.0038 86.9062 18.6648C87.0729 18.3239 87.3078 18.0578 87.6108 17.8665C87.9138 17.6752 88.2708 17.5795 88.6818 17.5795C89.0133 17.5795 89.3087 17.6411 89.5682 17.7642C89.8277 17.8854 90.0369 18.0559 90.196 18.2756C90.357 18.4953 90.4527 18.7519 90.483 19.0455H89.6562C89.6108 18.8409 89.5066 18.6648 89.3438 18.517C89.1828 18.3693 88.9669 18.2955 88.696 18.2955C88.4593 18.2955 88.2519 18.358 88.0739 18.483C87.8977 18.6061 87.7604 18.7822 87.6619 19.0114C87.5634 19.2386 87.5142 19.5076 87.5142 19.8182C87.5142 20.1364 87.5625 20.411 87.6591 20.642C87.7557 20.8731 87.892 21.0521 88.0682 21.179C88.2462 21.3059 88.4555 21.3693 88.696 21.3693C88.857 21.3693 89.0028 21.34 89.1335 21.2812C89.2661 21.2206 89.3769 21.1345 89.4659 21.0227C89.5568 20.911 89.6203 20.7765 89.6562 20.6193H90.483C90.4527 20.9015 90.3608 21.1534 90.2074 21.375C90.054 21.5966 89.8485 21.7708 89.5909 21.8977C89.3352 22.0246 89.035 22.0881 88.6903 22.0881ZM93.272 22.0881C92.8421 22.0881 92.4718 21.9962 92.1612 21.8125C91.8525 21.6269 91.6139 21.3665 91.4453 21.0312C91.2786 20.6941 91.1953 20.2992 91.1953 19.8466C91.1953 19.3996 91.2786 19.0057 91.4453 18.6648C91.6139 18.3239 91.8487 18.0578 92.1499 17.8665C92.4529 17.6752 92.8071 17.5795 93.2124 17.5795C93.4586 17.5795 93.6972 17.6203 93.9283 17.7017C94.1593 17.7831 94.3667 17.911 94.5504 18.0852C94.7341 18.2595 94.879 18.4858 94.9851 18.7642C95.0911 19.0407 95.1442 19.3769 95.1442 19.7727V20.0739H91.6754V19.4375H94.3118C94.3118 19.214 94.2663 19.0161 94.1754 18.8438C94.0845 18.6695 93.9567 18.5322 93.7919 18.4318C93.629 18.3314 93.4377 18.2812 93.218 18.2812C92.9794 18.2812 92.7711 18.34 92.593 18.4574C92.4169 18.5729 92.2805 18.7244 92.1839 18.9119C92.0893 19.0975 92.0419 19.2992 92.0419 19.517V20.0142C92.0419 20.3059 92.093 20.554 92.1953 20.7585C92.2995 20.9631 92.4444 21.1193 92.63 21.2273C92.8156 21.3333 93.0324 21.3864 93.2805 21.3864C93.4415 21.3864 93.5883 21.3636 93.7209 21.3182C93.8535 21.2708 93.968 21.2008 94.0646 21.108C94.1612 21.0152 94.2351 20.9006 94.2862 20.7642L95.0902 20.9091C95.0258 21.1458 94.9103 21.3532 94.7436 21.5312C94.5788 21.7074 94.3714 21.8447 94.1214 21.9432C93.8733 22.0398 93.5902 22.0881 93.272 22.0881ZM98.2568 15.976H101.673V19.432H98.2568V15.976ZM100.857 16.648H99.0808V18.76H100.857V16.648ZM102.873 15.344H103.705V20.696H102.873V15.344ZM103.457 17.52H104.737V18.216H103.457V17.52ZM99.0808 21.832H104.009V22.512H99.0808V21.832ZM99.0808 20.176H99.9208V22.152H99.0808V20.176ZM105.368 18.304H111.976V18.976H105.368V18.304ZM106.216 17.136H111.192V17.8H106.216V17.136ZM106.216 15.544H111.12V16.216H107.048V17.688H106.216V15.544ZM106.136 19.512H111.136V21.328H106.976V22.112H106.152V20.72H110.312V20.152H106.136V19.512ZM106.152 21.936H111.344V22.584H106.152V21.936ZM117.92 15.344H118.76V22.656H117.92V15.344ZM115.768 16.12H116.6C116.6 16.664 116.541 17.184 116.424 17.68C116.306 18.176 116.114 18.648 115.848 19.096C115.586 19.5387 115.24 19.9493 114.808 20.328C114.381 20.7067 113.853 21.048 113.224 21.352L112.776 20.688C113.485 20.3467 114.058 19.9573 114.496 19.52C114.933 19.0827 115.253 18.5947 115.456 18.056C115.664 17.512 115.768 16.9147 115.768 16.264V16.12ZM113.136 16.12H116.144V16.792H113.136V16.12Z" fill="white"/>
</svg>
