<svg width="83" height="81" viewBox="0 0 83 81" fill="none" xmlns="http://www.w3.org/2000/svg">
<path d="M16.904 1.106V77.246C16.904 77.678 17.012 78.02 17.228 78.272C17.444 78.524 17.768 78.704 18.2 78.812L21.602 79.298C21.962 79.334 22.142 79.46 22.142 79.676C22.142 79.892 21.998 80 21.71 80H2.324C2.252 80 2.18 79.973 2.108 79.919C2.036 79.865 2 79.784 2 79.676C2 79.604 2.054 79.523 2.162 79.433C2.27 79.343 2.45 79.28 2.702 79.244L6.05 78.812C6.518 78.704 6.851 78.524 7.049 78.272C7.247 78.02 7.346 77.696 7.346 77.3V5.642C7.346 5.462 7.301 5.318 7.211 5.21C7.121 5.102 6.95 5.048 6.698 5.048H2.486C2.378 5.048 2.288 5.012 2.216 4.94C2.144 4.868 2.108 4.796 2.108 4.724C2.108 4.616 2.144 4.535 2.216 4.481C2.288 4.427 2.396 4.382 2.54 4.346L15.5 0.728003C15.788 0.620003 15.986 0.557003 16.094 0.539003C16.202 0.521003 16.31 0.512003 16.418 0.512003C16.598 0.512003 16.724 0.575003 16.796 0.701003C16.868 0.827003 16.904 0.962003 16.904 1.106ZM16.148 42.74L15.716 42.254L17.552 40.58C20.972 37.484 23.897 35.288 26.327 33.992C28.757 32.696 31.106 32.048 33.374 32.048C36.686 32.048 39.269 33.137 41.123 35.315C42.977 37.493 44.228 40.85 44.876 45.386L49.088 76.814C49.16 77.39 49.331 77.867 49.601 78.245C49.871 78.623 50.312 78.848 50.924 78.92L53.786 79.352C53.966 79.388 54.092 79.433 54.164 79.487C54.236 79.541 54.272 79.604 54.272 79.676C54.272 79.784 54.236 79.865 54.164 79.919C54.092 79.973 53.984 80 53.84 80H34.13C33.806 80 33.644 79.892 33.644 79.676C33.644 79.532 33.842 79.406 34.238 79.298L37.748 78.812C38.396 78.704 38.837 78.461 39.071 78.083C39.305 77.705 39.386 77.282 39.314 76.814L35.426 46.358C34.922 42.866 34.067 40.31 32.861 38.69C31.655 37.07 29.882 36.26 27.542 36.26C25.994 36.26 24.455 36.656 22.925 37.448C21.395 38.24 19.73 39.464 17.93 41.12L16.148 42.74Z" fill="#2D1810"/>
<path d="M75.2134 80C74.0974 80 73.0894 79.712 72.1894 79.136C71.2894 78.56 70.5784 77.777 70.0564 76.787C69.5344 75.797 69.2734 74.708 69.2734 73.52C69.2734 72.368 69.5344 71.297 70.0564 70.307C70.5784 69.317 71.2984 68.534 72.2164 67.958C73.1344 67.382 74.1334 67.094 75.2134 67.094C76.3654 67.094 77.4004 67.391 78.3184 67.985C79.2364 68.579 79.9564 69.362 80.4784 70.334C81.0004 71.306 81.2614 72.368 81.2614 73.52C81.2614 74.708 80.9914 75.797 80.4514 76.787C79.9114 77.777 79.1914 78.56 78.2914 79.136C77.3914 79.712 76.3654 80 75.2134 80Z" fill="#B5835A"/>
</svg>
