<svg xmlns="http://www.w3.org/2000/svg" viewBox="0 0 100 100" preserveAspectRatio="xMidYMid meet">
  <g fill="#2D1810" transform="translate(12 80) scale(0.054 -0.054)">
    <path d="M313 1461V51Q313 39 319.0 32.0Q325 25 337 22L400 13Q410 12 410 6Q410 0 402 0H43Q41 0 39.0 1.5Q37 3 37 6Q37 8 40.0 10.5Q43 13 50 14L112 22Q125 25 130.5 32.0Q136 39 136 50V1377Q136 1382 133.5 1385.0Q131 1388 124 1388H46Q43 1388 41.0 1390.0Q39 1392 39 1394Q39 1397 41.0 1398.5Q43 1400 47 1401L287 1468Q295 1471 298.0 1471.5Q301 1472 304 1472Q309 1472 311.0 1468.5Q313 1465 313 1461ZM299 690 291 699 325 730Q420 816 487.5 852.0Q555 888 618 888Q710 888 761.5 827.5Q813 767 831 641L909 59Q911 43 918.5 32.5Q926 22 943 20L996 12Q1001 11 1003.0 9.5Q1005 8 1005 6Q1005 3 1003.0 1.5Q1001 0 997 0H632Q623 0 623 6Q623 10 634 13L699 22Q717 25 723.5 35.5Q730 46 728 59L656 623Q642 720 608.5 765.0Q575 810 510 810Q467 810 424.5 788.0Q382 766 332 720Z"/>
  </g>
  <g fill="#B5835A" transform="translate(78 80) scale(0.054 -0.054)">
    <path d="M172 -16Q141 -16 116.0 0.0Q91 16 76.5 43.5Q62 71 62 104Q62 136 76.5 163.5Q91 191 116.5 207.0Q142 223 172 223Q204 223 229.5 206.5Q255 190 269.5 163.0Q284 136 284 104Q284 71 269.0 43.5Q254 16 229.0 0.0Q204 -16 172 -16Z"/>
  </g>
</svg>
