<svg width="115" height="30" viewBox="0 0 115 30" fill="none" xmlns="http://www.w3.org/2000/svg">
<path d="M16.4767 0H0V3.27399H16.4767V0ZM32.989 6.58357H9.89314V9.85756H32.989V6.58357ZM36.2986 13.1671H9.92873V16.4411H36.2986V13.1671ZM32.989 19.7507H9.89314V23.0247H32.989V19.7507ZM26.3699 26.3699H9.89314V29.6439H26.3699V26.3699Z" fill="#2E1706"/>
<path d="M47.7025 11.9364V0.84927H45.9805V0.106934H50.368V0.84927H48.646V11.9364H50.368V12.6787H45.9805V11.9364H47.7025ZM51.0757 12.6787V11.9364H52.4674V4.36937H51.0757V3.62704H53.3874V5.03987H53.411C53.8828 3.93834 54.7556 3.36363 56.0294 3.36363C56.9729 3.36363 57.6334 3.62704 58.058 4.1778C58.4826 4.72857 58.6949 5.56669 58.6949 6.71611V11.9364H59.9687V12.6787H56.2889V11.9364H57.775V6.71611C57.775 4.96803 57.0909 4.10597 55.7463 4.10597C55.0386 4.10597 54.4725 4.41727 54.0479 5.01592C53.6233 5.63853 53.411 6.4527 53.411 7.50634V11.9364H54.8028V12.6787H51.0757ZM67.4701 5.1596V0.873218H65.9839V0.106934H68.4136V11.9364H69.6167V12.6787H67.4936V11.1222H67.4465C67.0926 11.7688 66.6916 12.2477 66.2434 12.5111C65.7952 12.7745 65.2291 12.9182 64.5214 12.9182C64.1204 12.9182 63.7194 12.8464 63.3656 12.7027C62.9881 12.559 62.6107 12.3195 62.2333 11.9843C61.8559 11.6491 61.5492 11.1701 61.3369 10.4996C61.101 9.82913 61.0067 9.06285 61.0067 8.12894C61.0067 6.69217 61.3133 5.54274 61.9502 4.68068C62.5635 3.79466 63.4363 3.36363 64.545 3.36363C65.9132 3.36363 66.8803 3.96229 67.4701 5.13566V5.1596ZM62.6815 5.25539C62.1861 6.02167 61.9266 6.97952 61.9266 8.15289C61.9266 9.32626 62.1861 10.2841 62.6815 11.0504C63.1769 11.8167 63.8845 12.1998 64.8045 12.1998C65.2999 12.1998 65.7245 12.0801 66.1019 11.8406C66.4793 11.6012 66.7624 11.2899 66.9747 10.8828C67.187 10.4757 67.3285 10.0207 67.4229 9.54177C67.5172 9.06285 67.5644 8.55998 67.5644 8.00921C67.5644 7.29082 67.4701 6.66822 67.3049 6.1414C67.1398 5.61458 66.9039 5.2075 66.6208 4.92014C66.3378 4.65673 66.0547 4.44121 65.7481 4.32148C65.4414 4.20175 65.1347 4.12991 64.8045 4.12991C63.8845 4.10596 63.1769 4.48911 62.6815 5.25539ZM78.0379 8.32051H71.551C71.5745 9.51783 71.834 10.4517 72.3294 11.1462C72.8248 11.8406 73.5324 12.1759 74.4288 12.1759C75.9149 12.1759 76.7877 11.4335 77.0472 9.97281H77.8728C77.7077 10.9546 77.3303 11.673 76.7405 12.1759C76.1508 12.6787 75.3724 12.9182 74.4524 12.9182C73.2022 12.9182 72.235 12.4872 71.5981 11.6251C70.9612 10.763 70.631 9.61362 70.631 8.15289C70.631 6.69217 70.9612 5.54274 71.5981 4.68068C72.235 3.81861 73.2022 3.38758 74.4524 3.38758C75.278 3.38758 75.9857 3.62704 76.5518 4.10597C77.118 4.58489 77.519 5.18355 77.7313 5.90194C77.92 6.62033 78.0379 7.4345 78.0379 8.32051ZM71.5274 7.57818H77.0944C77.0708 6.47665 76.8113 5.61458 76.3395 5.01592C75.8441 4.41727 75.1837 4.10597 74.3109 4.10597C73.5324 4.10597 72.9191 4.41727 72.4237 5.06382C71.9284 5.71037 71.6217 6.54849 71.5274 7.57818ZM78.8635 12.6787V11.9364H79.642L82.4962 8.00921L79.8779 4.36937H79.123V3.62704H82.166V4.36937H80.9158L83.086 7.38661L85.2798 4.36937H84.1711V3.62704H87.214V4.36937H86.3177L83.6285 8.00921L86.4828 11.9364H87.2612V12.6787H84.2182V11.9364H85.4449L83.0624 8.63182L80.6799 11.9364H81.9065V12.6787H78.8635Z" fill="#2E1706"/>
<path d="M45.9805 17.9285V17.189H50.1155V17.9285H48.1957L52.0107 28.6642H52.0354L55.8504 17.9285H53.9306V17.189H58.0903V17.9285H56.958L52.6261 29.7139H51.4446L47.1127 17.9285H45.9805ZM65.4743 25.3719H58.7056C58.7302 26.5648 59.001 27.4952 59.5178 28.1871C60.0347 28.8789 60.7731 29.2129 61.7084 29.2129C63.2591 29.2129 64.1698 28.4734 64.4405 27.0181H65.302C65.1297 27.9962 64.7359 28.7119 64.1205 29.2129C63.5052 29.7139 62.693 29.9525 61.733 29.9525C60.4285 29.9525 59.4194 29.5231 58.7548 28.6642C58.0903 27.8054 57.7457 26.6602 57.7457 25.205C57.7457 23.7497 58.0903 22.6045 58.7548 21.7457C59.4194 20.8868 60.4285 20.4574 61.733 20.4574C62.5945 20.4574 63.3329 20.696 63.9236 21.1731C64.5143 21.6502 64.9328 22.2467 65.1543 22.9624C65.3512 23.6781 65.4743 24.4892 65.4743 25.3719ZM58.7056 24.6324H64.5144C64.4897 23.535 64.219 22.6761 63.7267 22.0797C63.2098 21.4832 62.5207 21.1731 61.61 21.1731C60.7977 21.1731 60.1578 21.4832 59.6409 22.1274C59.0994 22.7715 58.804 23.6065 58.7056 24.6324ZM66.4096 29.7139V28.9744H67.8618V21.4355H66.4096V20.696H68.8217V22.1035H68.8463C69.3386 21.0061 70.2493 20.4335 71.5784 20.4335C72.5629 20.4335 73.2521 20.696 73.6951 21.2447C74.1382 21.7934 74.3597 22.6284 74.3597 23.7735V28.9744H75.6888V29.7139H71.8245V28.9744H73.3752V23.7735C73.3752 22.032 72.6614 21.1731 71.2584 21.1731C70.52 21.1731 69.9293 21.4832 69.4863 22.0797C69.0432 22.7 68.8217 23.5111 68.8217 24.5608V28.9744H70.2739V29.7139H66.4096ZM77.8794 20.696V18.7635L78.864 18.4057V20.6721H81.3745V21.4117H78.864V27.71C78.864 28.2348 78.9624 28.5927 79.1347 28.8312C79.307 29.0698 79.5285 29.1891 79.7993 29.1891C80.5377 29.1891 80.9069 28.6165 80.9069 27.4475V27.2567H81.6699V27.5907C81.6699 28.2825 81.4976 28.8551 81.153 29.2845C80.8084 29.7139 80.3161 29.9287 79.7008 29.9287C78.4948 29.9287 77.904 29.2607 77.904 27.9247V21.4117H76.2549V20.6721H77.8794V20.696ZM82.4575 21.4355V20.696H84.7712V26.6125C84.7712 28.3541 85.485 29.2129 86.8879 29.2129C87.6017 29.2129 88.1924 28.9267 88.6355 28.3302C89.0785 27.7338 89.3246 26.9465 89.3246 25.9445V21.4355H87.8725V20.696H90.2846V28.9744H91.7368V29.7139H89.3246V28.2348H89.3C89.0539 28.7835 88.7093 29.2129 88.217 29.4992C87.7494 29.7855 87.1833 29.9525 86.5679 29.9525C85.5834 29.9525 84.8942 29.6901 84.4512 29.1414C84.0082 28.5927 83.7866 27.7577 83.7866 26.6125V21.4117H82.4575V21.4355ZM92.4752 29.7139V28.9744H93.9274V21.4355H92.4752V20.696H94.8873V22.2944H94.9119C95.0842 21.698 95.4042 21.2447 95.8472 20.9107C96.2902 20.6005 96.7825 20.4335 97.3486 20.4335C97.5701 20.4335 97.7424 20.4574 97.8655 20.4812V21.3162C97.7917 21.2924 97.644 21.2685 97.4224 21.2685C96.5856 21.2685 95.9703 21.5787 95.5272 22.1751C95.0842 22.7715 94.8873 23.5588 94.8873 24.5608V28.9744H96.6594V29.7139H92.4752ZM106.554 25.3719H99.7853C99.8099 26.5648 100.081 27.4952 100.598 28.1871C101.114 28.8789 101.853 29.2129 102.788 29.2129C104.339 29.2129 105.25 28.4734 105.52 27.0181H106.382C106.209 27.9962 105.816 28.7119 105.2 29.2129C104.585 29.7139 103.773 29.9525 102.813 29.9525C101.508 29.9525 100.499 29.5231 99.8346 28.6642C99.17 27.8054 98.8254 26.6602 98.8254 25.205C98.8254 23.7497 99.17 22.6045 99.8346 21.7457C100.499 20.8868 101.508 20.4574 102.813 20.4574C103.674 20.4574 104.413 20.696 105.003 21.1731C105.594 21.6502 106.013 22.2467 106.234 22.9624C106.431 23.6781 106.554 24.4892 106.554 25.3719ZM99.7853 24.6324H105.569C105.545 23.535 105.274 22.6761 104.782 22.0797C104.265 21.4832 103.576 21.1731 102.665 21.1731C101.853 21.1731 101.213 21.4832 100.696 22.1274C100.179 22.7715 99.8838 23.6065 99.7853 24.6324ZM107.883 29.7139V26.541H108.646C108.671 27.4237 108.917 28.0678 109.385 28.5449C109.828 28.9982 110.418 29.2368 111.132 29.2368C111.821 29.2368 112.387 29.0698 112.781 28.7119C113.2 28.3779 113.397 27.8769 113.397 27.2805C113.397 26.7557 113.249 26.3501 112.953 26.1354C112.658 25.8968 112.141 25.7298 111.378 25.6105L110.197 25.4435C108.695 25.1811 107.932 24.4654 107.932 23.2964C107.932 22.4137 108.228 21.7457 108.818 21.2447C109.409 20.7437 110.098 20.4812 110.935 20.4812C112.166 20.4812 112.978 20.9107 113.397 21.7934H113.421V20.7198H114.184V23.8212H113.421V23.3202C113.421 22.6522 113.2 22.1274 112.757 21.7695C112.314 21.3878 111.747 21.2208 111.058 21.2208C110.394 21.2208 109.877 21.4117 109.483 21.7695C109.089 22.1274 108.892 22.6045 108.892 23.1771C108.892 23.9882 109.434 24.4654 110.541 24.6324L111.895 24.8471C112.757 24.9664 113.372 25.2288 113.741 25.6105C114.135 25.9922 114.307 26.541 114.307 27.2089C114.307 28.1155 114.036 28.8074 113.47 29.2845C112.904 29.7617 112.117 30.0002 111.107 30.0002C109.852 30.0002 109.015 29.5231 108.597 28.5449V29.7617H107.883V29.7139Z" fill="#2E1706"/>
</svg>
