<svg version="1.1" id="Layer_1" xmlns="http://www.w3.org/2000/svg" xmlns:xlink="http://www.w3.org/1999/xlink" x="0px" y="0px" viewBox="0 0 296.3 49.3" style="enable-background:new 0 0 296.3 49.3;" xml:space="preserve">
 <style type="text/css">
  .st0{fill:#181818;}
	.st1{clip-path:url(#SVGID_2_);}
	.st2{fill:#E42313;}
 </style>
 <g>
  <g>
   <g>
    <path class="st0" d="M94.1,12.9v1.4h-3.3v20.9h3.3v1.4h-8.4v-1.4H89V14.2h-3.3v-1.4H94.1z">
    </path>
    <path class="st0" d="M110.1,35.1h2.4v1.4h-7.1v-1.4h2.8v-9.9c0-1.6-0.3-2.8-0.9-3.6c-0.6-0.8-1.6-1.2-3-1.2
				c-0.7,0-1.3,0.2-1.9,0.5c-0.6,0.3-1,0.7-1.4,1.3c-0.4,0.6-0.7,1.2-0.9,2c-0.2,0.8-0.3,1.6-0.3,2.5v8.5h2.6v1.4h-7.1v-1.4h2.6
				V20.8h-2.6v-1.4h4.4v2.7h0.1c0.9-2.1,2.6-3.1,5-3.1c1.9,0,3.2,0.5,3.9,1.6c0.8,1,1.2,2.6,1.2,4.6V35.1z">
    </path>
    <path class="st0" d="M128.6,12.9v22.3h2.3v1.4h-4.1v-2.9h-0.1c-0.7,1.2-1.4,2-2.2,2.6c-0.8,0.5-1.9,0.8-3.3,0.8
				c-2.1,0-3.7-0.8-4.9-2.3c-1.2-1.6-1.8-3.8-1.8-6.6c0-1.4,0.2-2.6,0.5-3.7c0.3-1.1,0.8-2,1.4-2.8c0.6-0.8,1.3-1.4,2.1-1.8
				s1.8-0.6,2.8-0.6c1.3,0,2.4,0.3,3.3,0.8c0.9,0.5,1.7,1.4,2.3,2.5h0.1v-8.1H124v-1.4H128.6z M121.7,35.6c0.9,0,1.6-0.2,2.3-0.6
				c0.7-0.4,1.2-0.9,1.7-1.6c0.4-0.7,0.8-1.5,1-2.5c0.2-1,0.3-2,0.3-3.2c0-2.4-0.5-4.2-1.5-5.4c-1-1.3-2.3-1.9-3.8-1.9
				c-0.8,0-1.6,0.2-2.3,0.5c-0.7,0.4-1.3,0.9-1.7,1.5c-0.5,0.7-0.8,1.5-1.1,2.4c-0.3,0.9-0.4,2-0.4,3.1c0,1.1,0.1,2.1,0.4,3.1
				c0.3,0.9,0.6,1.7,1.1,2.4c0.5,0.7,1.1,1.2,1.7,1.6S120.9,35.6,121.7,35.6z">
    </path>
    <path class="st0" d="M134.6,28.3c0,2.2,0.5,4,1.5,5.3c0.9,1.3,2.3,1.9,4,1.9c1.3,0,2.4-0.3,3.3-0.9c0.9-0.6,1.5-1.7,1.7-3.2h1.6
				c-0.3,1.9-1,3.3-2.2,4.2c-1.2,0.9-2.6,1.4-4.4,1.4c-2.3,0-4.1-0.8-5.4-2.4c-1.3-1.6-1.9-3.8-1.9-6.6c0-2.8,0.6-5,1.9-6.6
				c1.3-1.6,3.1-2.4,5.4-2.4c2.2,0,3.9,0.8,5.1,2.4c1.2,1.6,1.8,3.9,1.8,6.9H134.6z M145.2,26.9c0-2.1-0.5-3.7-1.4-4.8
				s-2.2-1.7-3.9-1.7c-1.4,0-2.6,0.5-3.5,1.6c-1,1.1-1.5,2.7-1.8,4.9H145.2z">
    </path>
    <path class="st0" d="M154.9,19.5v1.4h-2.4l4.1,5.7l4.2-5.7h-2.1v-1.4h5.8v1.4h-1.7l-5.1,6.9l5.5,7.4h1.5v1.4h-5.8v-1.4h2.3
				l-4.6-6.2l-4.6,6.2h2.3v1.4h-5.8v-1.4h1.5l5.5-7.4l-5-6.9h-1.5v-1.4H154.9z">
    </path>
    <path class="st0" d="M178.5,12.9v1.4H175l7,20.3h0.1l7-20.3h-3.5v-1.4h7.6v1.4H191l-7.9,22.3h-2.2L173,14.2h-2.1v-1.4H178.5z">
    </path>
    <path class="st0" d="M194.2,28.3c0,2.2,0.5,4,1.5,5.3c0.9,1.3,2.3,1.9,4,1.9c1.3,0,2.4-0.3,3.3-0.9c0.9-0.6,1.5-1.7,1.7-3.2h1.6
				c-0.3,1.9-1,3.3-2.2,4.2c-1.2,0.9-2.6,1.4-4.4,1.4c-2.3,0-4.1-0.8-5.4-2.4c-1.3-1.6-1.9-3.8-1.9-6.6c0-2.8,0.6-5,1.9-6.6
				c1.3-1.6,3.1-2.4,5.4-2.4c2.2,0,3.9,0.8,5.1,2.4c1.2,1.6,1.8,3.9,1.8,6.9H194.2z M204.9,26.9c0-2.1-0.5-3.7-1.4-4.8
				s-2.2-1.7-3.9-1.7c-1.4,0-2.6,0.5-3.5,1.6c-1,1.1-1.5,2.7-1.8,4.9H204.9z">
    </path>
    <path class="st0" d="M223,35.1h2.4v1.4h-7.1v-1.4h2.8v-9.9c0-1.6-0.3-2.8-0.9-3.6s-1.6-1.2-3-1.2c-0.7,0-1.3,0.2-1.9,0.5
				c-0.6,0.3-1,0.7-1.4,1.3c-0.4,0.6-0.7,1.2-0.9,2c-0.2,0.8-0.3,1.6-0.3,2.5v8.5h2.6v1.4h-7.1v-1.4h2.6V20.8h-2.6v-1.4h4.4v2.7h0.1
				c0.9-2.1,2.6-3.1,5-3.1c1.9,0,3.2,0.5,3.9,1.6c0.8,1,1.2,2.6,1.2,4.6V35.1z">
    </path>
    <path class="st0" d="M231.2,19.5h4.6v1.4h-4.6v12.1c0,0.9,0.2,1.6,0.5,2c0.3,0.4,0.7,0.6,1.2,0.6c0.6,0,1.1-0.2,1.5-0.7
				c0.4-0.5,0.6-1.2,0.6-2.2V32h1.4v0.4c0,1.5-0.3,2.6-1,3.4s-1.5,1.2-2.6,1.2c-1.2,0-2-0.3-2.5-1c-0.5-0.7-0.8-1.6-0.8-2.7V20.8h-3
				v-1.4h3v-3.6l1.8-0.7V19.5z">
    </path>
    <path class="st0" d="M242,19.5v11.3c0,1.6,0.3,2.8,0.9,3.6c0.6,0.8,1.6,1.2,3,1.2c0.7,0,1.3-0.1,1.8-0.4s1-0.7,1.4-1.2
				s0.7-1.2,0.9-1.9c0.2-0.7,0.3-1.6,0.3-2.5v-8.7h-2.6v-1.4h4.4v15.7h2.6v1.4h-4.4v-2.8h-0.1c-0.4,1.1-1.1,1.9-2,2.4
				c-0.9,0.6-1.9,0.8-3,0.8c-1.9,0-3.2-0.5-3.9-1.6c-0.8-1-1.2-2.6-1.2-4.6v-10h-2.4v-1.4H242z">
    </path>
    <path class="st0" d="M266,20.7c0,0-0.2-0.1-0.4-0.1s-0.4,0-0.5,0c-0.8,0-1.5,0.2-2.1,0.5s-1.1,0.8-1.5,1.3
				c-0.4,0.6-0.7,1.2-0.8,1.9c-0.2,0.7-0.3,1.5-0.3,2.3v8.5h3.2v1.4h-7.7v-1.4h2.6V20.8h-2.6v-1.4h4.4v3h0.1c0.4-1.1,0.9-2,1.7-2.6
				c0.8-0.6,1.7-0.9,2.7-0.9c0.4,0,0.7,0,0.9,0.1V20.7z">
    </path>
    <path class="st0" d="M269.5,28.3c0,2.2,0.5,4,1.5,5.3c0.9,1.3,2.3,1.9,4,1.9c1.3,0,2.4-0.3,3.3-0.9c0.9-0.6,1.5-1.7,1.7-3.2h1.6
				c-0.3,1.9-1,3.3-2.2,4.2c-1.2,0.9-2.6,1.4-4.4,1.4c-2.3,0-4.1-0.8-5.4-2.4c-1.3-1.6-1.9-3.8-1.9-6.6c0-2.8,0.6-5,1.9-6.6
				c1.3-1.6,3.1-2.4,5.4-2.4c2.2,0,3.9,0.8,5.1,2.4c1.2,1.6,1.8,3.9,1.8,6.9H269.5z M280.1,26.9c0-2.1-0.5-3.7-1.4-4.8
				s-2.2-1.7-3.9-1.7c-1.4,0-2.6,0.5-3.5,1.6c-1,1.1-1.5,2.7-1.8,4.9H280.1z">
    </path>
    <path class="st0" d="M294.6,21.5v-2h1.4v5.8h-1.4v-0.8c0-0.9-0.1-1.6-0.4-2.1c-0.3-0.5-0.7-1-1.1-1.3s-0.9-0.5-1.4-0.6
				c-0.5-0.1-1-0.2-1.4-0.2c-1.3,0-2.2,0.3-2.9,1c-0.7,0.7-1,1.6-1,2.7c0,0.5,0.1,0.9,0.3,1.3c0.2,0.4,0.5,0.6,0.8,0.8
				c0.4,0.2,0.9,0.4,1.4,0.5c0.5,0.1,1.1,0.2,1.7,0.3c0.6,0.1,1.1,0.2,1.7,0.3c0.6,0.1,1,0.2,1.5,0.4c0.8,0.4,1.5,0.9,1.9,1.5
				s0.7,1.4,0.7,2.5c0,1.8-0.5,3.1-1.6,4c-1.1,0.9-2.5,1.3-4.3,1.3c-1,0-2-0.2-2.8-0.6c-0.8-0.4-1.4-1.1-1.8-2.1h0v2.3h-1.4v-6h1.4
				c0.1,1.7,0.5,3,1.4,3.8c0.8,0.8,1.9,1.2,3.2,1.2c1.3,0,2.3-0.3,3.1-1c0.7-0.6,1.1-1.6,1.1-2.7c0-0.9-0.2-1.5-0.5-1.9
				c-0.3-0.4-0.8-0.7-1.4-0.9c-0.4-0.1-0.9-0.2-1.4-0.3s-1-0.2-1.6-0.2c-0.5-0.1-1.1-0.2-1.6-0.3c-0.5-0.1-1-0.3-1.5-0.5
				c-0.6-0.3-1-0.7-1.4-1.2c-0.4-0.5-0.6-1.2-0.6-2.1c0-0.8,0.1-1.5,0.4-2.2s0.7-1.2,1.2-1.7c0.5-0.5,1.1-0.8,1.7-1.1
				c0.7-0.3,1.4-0.4,2.1-0.4c1.1,0,2,0.2,2.7,0.6C293.5,20,294.1,20.6,294.6,21.5L294.6,21.5z">
    </path>
   </g>
  </g>
  <g>
   <defs>
    <rect id="SVGID_1_" width="60.2" height="49.3">
    </rect>
   </defs>
   <clipPath id="SVGID_2_">
    <use href="#SVGID_1_" style="overflow:visible;">
    </use>
   </clipPath>
   <g class="st1">
    <path class="st2" d="M27.4,0H0v5.5h27.4V0z">
    </path>
    <path class="st2" d="M54.8,10.9H16.4v5.5h38.3V10.9z">
    </path>
    <path class="st2" d="M60.2,21.9H16.4v5.5h43.8V21.9z">
    </path>
    <path class="st2" d="M54.8,32.8H16.4v5.5h38.3V32.8z">
    </path>
    <path class="st2" d="M43.8,43.8H16.4v5.5h27.4V43.8z">
    </path>
   </g>
  </g>
 </g>
</svg>