<svg width="800" height="800" viewBox="0 0 800 800" fill="none" xmlns="http://www.w3.org/2000/svg">
<path d="M492.857 514.286C528.361 514.286 557.143 543.068 557.143 578.572V621.485L556.918 624.584C548.039 685.333 493.472 714.544 401.908 714.544C310.675 714.544 255.237 685.667 243.27 625.617L242.857 621.429V578.572C242.857 543.068 271.639 514.286 307.143 514.286H492.857ZM492.857 557.143H307.143C295.308 557.143 285.714 566.737 285.714 578.572V619.154C293.708 653.451 330.018 671.687 401.908 671.687C473.796 671.687 508.475 653.649 514.286 619.805V578.572C514.286 566.737 504.692 557.143 492.857 557.143ZM521.244 342.826L678.571 342.858C714.075 342.858 742.857 371.639 742.857 407.143V450.057L742.632 453.156C733.753 513.905 679.186 543.116 587.623 543.116L578.626 543.02C570.197 522.632 554.717 505.938 535.239 495.929C549.948 498.812 567.374 500.259 587.623 500.259C659.51 500.259 694.19 482.22 700 448.376V407.143C700 395.309 690.406 385.715 678.571 385.715H528.571C528.571 370.676 525.989 356.24 521.244 342.826ZM121.429 342.858L278.756 342.826C274.801 354.004 272.349 365.892 271.642 378.247L271.429 385.715H121.429C109.594 385.715 100 395.309 100 407.143V447.725C107.994 482.023 144.304 500.259 216.194 500.259C233.967 500.259 249.466 499.156 262.817 496.984C244.224 507.081 229.485 523.355 221.324 543.045L216.194 543.116C124.96 543.116 69.5229 514.239 57.556 454.188L57.1428 450V407.143C57.1428 371.639 85.9245 342.858 121.429 342.858ZM400 285.715C455.228 285.715 500 330.486 500 385.715C500 440.943 455.228 485.715 400 485.715C344.771 485.715 300 440.943 300 385.715C300 330.486 344.771 285.715 400 285.715ZM400 328.572C368.441 328.572 342.857 354.156 342.857 385.715C342.857 417.274 368.441 442.858 400 442.858C431.559 442.858 457.143 417.274 457.143 385.715C457.143 354.156 431.559 328.572 400 328.572ZM585.714 114.286C640.943 114.286 685.714 159.058 685.714 214.286C685.714 269.515 640.943 314.286 585.714 314.286C530.486 314.286 485.714 269.515 485.714 214.286C485.714 159.058 530.486 114.286 585.714 114.286ZM214.286 114.286C269.514 114.286 314.286 159.058 314.286 214.286C314.286 269.515 269.514 314.286 214.286 314.286C159.057 314.286 114.286 269.515 114.286 214.286C114.286 159.058 159.057 114.286 214.286 114.286ZM585.714 157.143C554.155 157.143 528.571 182.727 528.571 214.286C528.571 245.845 554.155 271.429 585.714 271.429C617.273 271.429 642.857 245.845 642.857 214.286C642.857 182.727 617.273 157.143 585.714 157.143ZM214.286 157.143C182.727 157.143 157.143 182.727 157.143 214.286C157.143 245.845 182.727 271.429 214.286 271.429C245.845 271.429 271.429 245.845 271.429 214.286C271.429 182.727 245.845 157.143 214.286 157.143Z" fill="white"/>
</svg>
