<svg width="199" height="28" viewBox="0 0 199 28" fill="none" xmlns="http://www.w3.org/2000/svg">
<g clip-path="url(#clip0_1905_4374)">
<path d="M59.851 0.79248C56.9287 0.79248 54.6691 1.87013 52.9424 3.62219C50.4186 6.18288 50.4207 9.4164 50.4207 13.9987C50.4207 18.4462 50.2858 21.6824 52.9424 24.3779C54.802 26.2647 56.9287 27.2076 59.851 27.2076C60.6479 27.2076 61.3115 27.0739 61.9757 26.9391H70.6095L68.0852 22.4905C69.2807 20.1993 69.2812 17.5028 69.2812 13.9987C69.2812 9.55117 69.2807 6.31766 66.757 3.62219C65.0302 1.73536 62.7732 0.79248 59.851 0.79248ZM112.186 0.79248C109.263 0.79248 107.004 1.73536 105.277 3.62219C102.62 6.31766 102.753 9.55117 102.753 13.9987C102.753 18.581 102.753 21.8172 105.277 24.3779C107.004 26.1299 109.263 27.2076 112.186 27.2076C115.108 27.2076 117.365 26.2647 119.092 24.3779C121.615 21.6824 121.616 18.4462 121.616 13.9987C121.616 9.4164 121.615 6.18288 119.092 3.62219C117.232 1.87013 115.108 0.79248 112.186 0.79248ZM10.7048 0.926715C5.126 0.926715 1.80376 4.16235 1.80376 8.74465C1.80376 10.901 2.46841 12.6515 3.66386 13.8645C4.72648 14.9426 6.45479 15.7508 8.58003 16.0203L11.6335 16.4257C12.829 16.6952 13.3618 16.8289 13.8931 17.368C14.4244 17.9071 14.6896 18.5831 14.6896 19.5265C14.6896 21.6829 13.0951 22.759 10.1729 22.759C7.91486 22.759 5.65731 22.2204 4.06338 20.6031L0.875 23.8382C3.39872 26.3989 6.32093 27.2076 10.1729 27.2076C15.486 27.2076 19.7355 24.3763 19.7355 19.3896C19.7355 17.0985 19.0713 15.2122 17.7431 13.8645C16.6804 12.7863 15.2204 12.1124 12.8295 11.8428L9.77341 11.4401C8.71079 11.1706 7.91538 10.9 7.38407 10.3609C6.85276 9.82177 6.58762 9.14738 6.58762 8.47351C6.58762 6.72145 7.9159 5.23842 10.5724 5.23842C12.1664 5.23842 14.1567 5.37424 15.7507 6.99153L18.939 3.89068C16.8138 1.73431 14.1583 0.926715 10.7048 0.926715ZM26.9087 1.06095V26.9391H43.7793V22.4905H31.9572V16.1572H42.0515V11.5743H31.9572V5.50953H43.7793V1.06095H26.9087ZM76.719 1.06095V18.0419C76.719 23.5676 80.969 27.2076 86.1493 27.2076C91.3295 27.2076 95.4472 23.5676 95.4472 18.0419V1.06095H90.5336V17.9076C90.5336 20.8727 88.8058 22.6247 86.1493 22.6247C83.4927 22.6247 81.7675 20.8727 81.7675 17.9076V1.06095H76.719ZM128.921 1.06095V26.9391H133.835V1.06095H128.921ZM149.377 1.06095L140.079 26.9391H145.258L146.853 22.3562H155.884L157.347 26.9391H162.525L153.227 1.06095H149.377ZM59.7186 5.37529C61.0469 5.37529 62.2403 5.91439 62.9044 6.72303C63.8342 7.80122 64.1004 9.01207 64.1004 13.9987C64.1004 18.9853 63.8342 20.1988 62.9044 21.277C62.2403 22.0856 61.0469 22.6247 59.7186 22.6247C58.3904 22.6247 57.1944 22.0856 56.5303 21.277C55.6005 20.1988 55.3343 18.9853 55.3343 13.9987C55.3343 9.01207 55.6005 7.80122 56.5303 6.72303C57.1944 5.91439 58.3904 5.37529 59.7186 5.37529ZM112.186 5.37529C113.514 5.37529 114.707 5.91439 115.371 6.72303C116.301 7.80122 116.567 9.01207 116.567 13.9987C116.567 18.9853 116.301 20.1988 115.371 21.277C114.707 22.0856 113.514 22.6247 112.186 22.6247C110.857 22.6247 109.661 22.0856 108.997 21.277C108.067 20.1988 107.801 18.9853 107.801 13.9987C107.801 9.01207 108.067 7.80122 108.997 6.72303C109.661 5.91439 110.857 5.37529 112.186 5.37529ZM151.37 8.60774L154.555 18.0419H148.181L151.37 8.60774Z" fill="#2E1706"/>
<path d="M172.621 1.06104V24.6464L175.807 21.4113V1.06104H172.621ZM178.995 1.06104V18.1789L182.184 14.9438V1.06104H178.995ZM185.372 1.06104V11.7087L188.56 8.47358V1.06104H185.372ZM191.746 1.06104V7.53123H198.123V1.06104H191.746ZM190.817 10.7663L187.629 13.9988H198.123V10.7663H190.817ZM184.441 17.2339L181.255 20.469H198.123V17.2339H184.441ZM178.067 23.7041L174.878 26.9392H198.123V23.7041H178.067Z" fill="#2E1706"/>
</g>
<defs>
<clipPath id="clip0_1905_4374">
<rect width="199" height="28" fill="white"/>
</clipPath>
</defs>
</svg>
