<svg width="166" height="34" viewBox="0 0 166 34" fill="none" xmlns="http://www.w3.org/2000/svg">
<path d="M93.2045 6.72754C93.4899 6.72754 93.5613 7.08924 93.5613 7.3786C93.6327 8.53605 93.704 9.62116 93.704 10.7786C93.7754 11.8637 93.7754 12.9488 93.7754 14.0339C94.4177 13.5275 94.9886 13.0212 95.7023 12.8041C96.8442 12.2978 98.2002 12.2978 99.342 12.8765C100.555 13.5275 101.34 14.685 101.769 15.9148C102.125 17.1446 102.268 18.4467 102.197 19.6765C102.054 21.1956 101.697 22.6424 100.841 23.8722C100.341 24.5956 99.6989 25.1743 98.8425 25.4637C97.4865 25.9701 96.0591 25.7531 94.8459 25.0297C94.4891 24.8126 94.1322 24.4509 93.8468 24.1616C93.704 24.5956 93.6327 25.0297 93.4899 25.4637C92.8476 25.4637 92.2767 25.536 91.6344 25.3914C91.8485 24.3786 91.8485 23.2935 91.9199 22.2807C91.9912 18.5914 91.9199 14.902 91.9199 11.285C91.8485 9.83818 91.9199 8.39137 91.7058 7.0169C92.134 6.87222 92.7049 6.72754 93.2045 6.72754ZM97.9147 14.3233C97.3438 14.1786 96.7728 14.1786 96.2732 14.2509C95.2741 14.3956 94.4891 15.119 93.8468 15.8424C93.8468 16.0595 93.8468 16.3488 93.8468 16.5658V22.4254C93.8468 22.6424 93.9895 22.7871 94.1322 22.8595C95.1314 23.7999 96.5587 24.2339 97.8433 23.9446C98.4856 23.7999 99.0566 23.3658 99.342 22.7871C99.8416 21.9914 99.9843 21.0509 100.056 20.1105C100.127 19.3871 100.198 18.6637 100.127 18.0126C100.127 17.2169 99.913 16.3488 99.4848 15.6254C99.1279 14.902 98.557 14.468 97.9147 14.3233ZM106.122 7.23392C106.479 7.08924 106.978 7.08924 107.335 7.30626C107.692 7.52328 107.977 7.88499 108.12 8.24669C108.334 9.11477 107.692 10.0552 106.836 10.1275C106.193 10.1999 105.48 9.83818 105.266 9.11477C104.98 8.46371 105.408 7.52328 106.122 7.23392ZM47.1013 8.75307C48.0291 8.10201 49.1709 7.59562 50.3128 7.59562C51.5261 7.59562 52.7393 7.66796 53.8098 8.17435C54.238 8.39137 54.6662 8.60839 55.0944 8.89775C54.8089 9.40413 54.4521 9.76584 54.0953 10.1999C53.6671 9.98286 53.2389 9.6935 52.7393 9.47648C51.5974 9.04243 50.2414 8.97009 49.0996 9.47648C48.1004 9.83818 47.3154 10.6339 46.8158 11.5743C46.5303 12.2978 46.2449 13.0212 46.1021 13.7446C45.9594 14.468 45.9594 15.1914 45.888 15.9148C45.888 16.8552 45.8167 17.868 45.888 18.8084C46.0308 20.1829 46.5304 21.485 47.3868 22.4978C48.1718 23.4382 49.3137 23.9446 50.5269 24.0892C51.1692 24.0892 51.7402 24.0892 52.3825 23.9446C53.0961 23.7999 53.7384 23.3658 54.4521 23.0765C54.8089 23.4382 55.1658 23.9446 55.5226 24.3786C55.023 24.668 54.5235 24.9573 53.9525 25.1743C52.5252 25.7531 50.8837 25.8254 49.385 25.6084C48.2432 25.3914 47.244 24.8126 46.3876 24.0892C45.3885 23.2212 44.6748 22.0637 44.2466 20.8339C43.9611 19.9658 43.8184 19.0978 43.747 18.2297C43.747 17.5786 43.6043 16.9275 43.747 16.2041C43.747 14.9743 43.9611 13.6722 44.4607 12.5148C44.9603 11.068 45.8167 9.6935 47.1013 8.75307Z" fill="#2E1706"/>
<path d="M0 0V34H33.3285V0H0ZM22.6948 9.76596C21.1247 12.8766 19.4832 15.9872 17.8418 19.0979C17.7704 19.2426 17.7704 19.3149 17.7704 19.4596C17.7704 21.7021 17.7704 23.9447 17.7704 26.1149C16.9854 26.1149 16.2003 26.1149 15.4153 26.1149C15.4153 23.9447 15.4153 21.7745 15.4153 19.6043C15.4153 19.3872 15.4153 19.0979 15.2726 18.8809C13.7739 16.0596 12.3465 13.2383 10.8478 10.3447C10.491 9.69362 10.1341 9.04255 9.84867 8.31915C9.9914 8.31915 10.1341 8.24681 10.2769 8.24681C10.9905 8.24681 11.7042 8.24681 12.4179 8.31915C12.5606 8.31915 12.5606 8.39149 12.632 8.46383C13.7025 10.7064 14.773 13.0213 15.9149 15.3362C16.129 15.8426 16.3431 16.2766 16.6285 16.7106C16.8426 16.3489 17.0567 15.9872 17.2709 15.5532C18.4841 13.0936 19.6973 10.7064 20.9106 8.24681C21.6956 8.24681 22.4807 8.17447 23.3371 8.31915C23.1943 8.97021 22.9089 9.33191 22.6948 9.76596Z" fill="#2E1706"/>
<path d="M138.593 9.4766C139.235 9.25958 139.878 9.1149 140.591 8.97021C140.449 10.2 140.377 11.4298 140.377 12.7319C141.376 12.7319 142.447 12.7319 143.446 12.8043C143.303 13.3106 143.089 13.7447 142.875 14.1787C142.019 14.1787 141.162 14.1787 140.235 14.1787C140.235 15.3362 140.235 16.4936 140.235 17.6511C140.235 18.5192 140.306 19.4596 140.235 20.4C140.235 21.4128 140.235 22.4979 140.306 23.5106C140.306 23.9447 140.734 24.234 141.091 24.3787C141.733 24.5234 142.376 24.4511 143.018 24.3064C143.161 24.6681 143.232 25.1021 143.232 25.4638C142.661 25.7532 142.019 25.8255 141.376 25.8979C140.52 25.8979 139.521 25.7532 138.879 25.1021C138.379 24.5957 138.379 23.8 138.308 23.1489C138.236 21.7021 138.308 20.183 138.236 18.7362C138.236 17.217 138.236 15.7702 138.236 14.2511C137.665 14.2511 137.094 14.2511 136.595 14.2511C136.595 13.7447 136.595 13.2383 136.595 12.8043C137.166 12.8043 137.665 12.8043 138.236 12.8043C138.45 11.6468 138.45 10.4894 138.593 9.4766ZM62.944 12.3702C63.4436 12.3702 64.0145 12.3702 64.5141 12.5149C65.6559 12.8766 66.6551 13.7447 67.226 14.7574C67.7256 15.6979 68.0824 16.7106 68.1538 17.7957C68.2252 19.2426 68.2965 20.6894 67.797 22.0638C67.3688 23.366 66.5123 24.5234 65.2991 25.1745C64.0859 25.8255 62.6585 25.8979 61.3739 25.5362C60.232 25.2468 59.2329 24.4511 58.5192 23.4383C57.8056 22.3532 57.5201 21.0511 57.5201 19.6766C57.5201 18.4468 57.4487 17.1447 57.8769 15.9149C58.2338 14.7574 59.0188 13.6723 60.0893 12.9489C60.5889 12.6596 61.0884 12.3702 61.6594 12.2979C62.0876 12.3702 62.5158 12.3702 62.944 12.3702ZM61.9449 14.034C61.3025 14.1787 60.6602 14.6128 60.3034 15.1915C59.8038 16.0596 59.6611 17.0723 59.6611 18.0851C59.5897 18.8085 59.6611 19.5319 59.7325 20.2553C59.8752 21.1234 60.0179 22.0638 60.4461 22.8596C60.8743 23.7277 61.8021 24.0894 62.7299 24.1617C63.5863 24.234 64.5141 24.017 65.1564 23.2936C65.6559 22.7149 65.9414 22.0638 66.0128 21.2681C66.1555 20.3277 66.1555 19.3872 66.0841 18.5192C66.0841 17.5787 65.9414 16.566 65.5846 15.6255C65.3705 15.0468 64.9423 14.6128 64.4427 14.3234C63.6577 13.8894 62.8013 13.817 61.9449 14.034ZM71.6508 12.8043C72.2217 12.5872 72.7927 12.4426 73.435 12.3702C73.6491 12.9489 73.7918 13.5277 73.8632 14.1787C74.2914 13.9617 74.5768 13.6 75.005 13.383C75.8614 12.7319 76.932 12.3702 78.0025 12.3702C78.2166 12.3702 78.502 12.4426 78.7161 12.5872C79.073 12.8043 79.4298 12.9489 79.7866 13.2383C80.0721 13.5277 80.2862 13.9617 80.5003 14.3234C80.9999 14.1064 81.3567 13.6723 81.7849 13.383C82.4986 12.8766 83.355 12.4426 84.3541 12.3702C85.2105 12.2979 86.0669 12.5872 86.7093 13.166C86.9947 13.4553 87.2802 13.7447 87.4229 14.1064C87.5657 14.4681 87.637 14.8298 87.637 15.2638C87.7798 17.2894 87.7084 19.3872 87.7798 21.4128C87.7798 22.7872 87.7798 24.1617 87.7798 25.5362C87.1375 25.5362 86.4238 25.5362 85.7815 25.5362C85.7815 23.5106 85.7815 21.4128 85.7815 19.3872C85.7815 18.0851 85.7815 16.783 85.7101 15.4085C85.6387 14.9745 85.4246 14.6128 85.0678 14.3234C84.711 14.1064 84.2114 14.1064 83.7118 14.1064C82.9268 14.1787 82.2845 14.6851 81.6422 15.1915C81.3567 15.4085 81.0712 15.6979 80.7858 15.9149C80.7144 15.9872 80.7144 16.1319 80.7144 16.2043C80.7144 19.3149 80.7144 22.3532 80.7144 25.4638C80.0721 25.4638 79.3584 25.4638 78.7161 25.4638V18.2298C78.7161 17.6511 78.7161 17.0723 78.7161 16.4936C78.7161 15.9149 78.7161 15.2638 78.502 14.7574C78.0738 14.1787 77.2888 14.034 76.6465 14.2511C75.6473 14.4681 74.7909 15.1192 74.0059 15.8426C73.8632 15.9149 73.8632 16.0596 73.8632 16.2043C73.8632 19.3149 73.8632 22.4255 73.8632 25.5362C73.2922 25.5362 72.7213 25.5362 72.1504 25.5362C72.079 22.3532 72.1504 19.1702 72.0076 15.9872C72.0076 15.2638 72.0076 14.5404 71.8649 13.817C71.7935 13.4553 71.6508 13.0936 71.6508 12.8043ZM105.693 12.7319C106.335 12.6596 106.978 12.5149 107.62 12.3702C107.691 14.1787 107.691 15.9872 107.691 17.7234C107.691 20.3277 107.691 22.8596 107.691 25.4638C107.049 25.4638 106.335 25.4638 105.693 25.4638C105.693 21.7745 105.693 18.0851 105.693 14.3957C105.693 13.8894 105.622 13.2383 105.693 12.7319ZM131.314 12.4426C132.67 12.6596 133.812 13.9617 133.883 15.4085C133.954 17.5064 133.883 19.6766 133.883 21.7745V22.4255C133.883 22.8596 133.883 23.2936 134.026 23.6553C134.097 24.0894 134.525 24.3064 134.811 24.5234C134.525 24.8851 134.311 25.3915 133.954 25.6809C133.74 25.8979 133.455 25.6809 133.312 25.5362C132.812 25.1745 132.527 24.6681 132.241 24.0894C131.813 24.3064 131.528 24.7404 131.028 24.9574C130.315 25.4638 129.458 25.6809 128.53 25.6809C127.745 25.6809 126.96 25.5362 126.247 25.1745C125.105 24.5234 124.462 23.2213 124.534 21.9192C124.534 20.6894 125.176 19.4596 126.104 18.7362C127.246 17.8681 128.744 17.5787 130.172 17.434C130.814 17.3617 131.456 17.3617 132.17 17.3617C132.17 16.7106 132.17 16.0596 132.027 15.4085C131.956 14.9021 131.671 14.3234 131.171 14.034C130.6 13.7447 129.886 13.6723 129.244 13.817C128.031 13.9617 126.889 14.4681 125.89 15.1915C125.604 14.8298 125.319 14.4681 125.105 14.034C124.962 13.817 125.176 13.6723 125.319 13.6C126.675 12.8766 128.102 12.2255 129.672 12.2255H130.315C130.671 12.3702 130.957 12.3702 131.314 12.4426ZM130.457 18.8809C129.815 18.9532 129.244 18.9532 128.602 19.0979C127.888 19.3149 127.246 19.7489 126.818 20.4C126.603 20.7617 126.603 21.1957 126.603 21.6298C126.603 22.0638 126.532 22.5702 126.746 23.0043C126.889 23.4383 127.246 23.8723 127.674 24.017C128.174 24.234 128.744 24.234 129.315 24.234C129.958 24.1617 130.529 23.8 131.028 23.366C131.456 23.0043 131.885 22.5702 131.885 21.9915C131.956 20.9787 131.956 19.8936 131.956 18.8809C131.456 18.9532 130.957 18.8085 130.457 18.8809ZM152.153 12.5149C153.295 12.8043 154.294 13.5277 155.008 14.4681C155.579 15.2638 155.935 16.1319 156.078 17.0723C156.221 17.9404 156.292 18.8809 156.221 19.8213C156.221 21.3404 155.721 22.7872 154.865 23.9447C154.151 24.8851 153.009 25.4638 151.939 25.6809C150.583 25.8979 149.084 25.6809 147.871 24.8128C146.872 24.0894 146.229 22.9319 145.873 21.7021C145.659 21.0511 145.659 20.4723 145.587 19.8213C145.587 18.7362 145.587 17.7234 145.73 16.6383C146.015 15.4809 146.586 14.3234 147.443 13.4553C148.085 12.8043 148.941 12.4426 149.798 12.2979C150.654 12.2979 151.439 12.3702 152.153 12.5149ZM150.012 14.034C149.084 14.1787 148.299 14.9021 148.014 15.7702C147.657 16.7106 147.657 17.7234 147.657 18.6638C147.657 19.6043 147.657 20.5447 147.871 21.4128C148.014 22.0638 148.156 22.6426 148.585 23.1489C148.941 23.6553 149.584 23.9447 150.155 24.017C150.369 24.0894 150.654 24.0894 150.868 24.0894H151.082H151.297C151.796 24.017 152.224 23.8723 152.652 23.6553C153.152 23.366 153.509 22.8596 153.723 22.2809C153.937 21.6298 154.008 20.9064 154.08 20.2553C154.08 19.4596 154.151 18.6638 154.08 17.7957C154.008 16.9277 153.937 16.0596 153.509 15.3362C153.152 14.7574 152.652 14.3234 152.01 14.034C151.368 13.8894 150.654 13.8894 150.012 14.034ZM159.646 12.8766C160.289 12.7319 160.86 12.5149 161.431 12.3702C161.787 13.0213 161.787 13.7447 161.859 14.3957C162.144 14.1787 162.43 13.8894 162.715 13.6C163.572 12.7319 164.856 12.2255 166.07 12.4426V12.5872C165.784 13.166 165.641 13.817 165.356 14.4681C165.356 14.6128 165.142 14.5404 165.07 14.5404C164.571 14.5404 163.929 14.5404 163.5 14.8298C163.001 15.1192 162.644 15.4809 162.287 15.9149C161.93 16.3489 162.002 16.9277 162.002 17.434C162.002 18.1574 161.93 18.8809 162.002 19.6043C162.002 21.5575 162.002 23.583 162.002 25.5362C161.359 25.5362 160.646 25.5362 160.003 25.5362C160.003 23.366 160.003 21.1234 160.003 18.9532C160.003 17.434 160.003 15.9872 159.932 14.4681C159.861 13.8894 159.718 13.383 159.646 12.8766ZM111.545 12.8766C112.116 12.6596 112.758 12.4426 113.329 12.4426C113.543 13.0213 113.686 13.6723 113.757 14.2511C114.257 13.8894 114.757 13.4553 115.256 13.166C116.327 12.5149 117.611 12.0809 118.753 12.5149C119.467 12.7319 120.109 13.166 120.537 13.817C120.894 14.2511 120.965 14.9021 121.037 15.4085C121.18 17.434 121.108 19.3872 121.108 21.4128C121.108 22.7872 121.108 24.0894 121.108 25.3915C120.466 25.3915 119.752 25.3915 119.11 25.3915C119.11 23.2213 119.039 20.9787 119.039 18.8085C119.039 17.5787 119.039 16.3489 118.896 15.1192C118.682 14.5404 118.182 14.034 117.54 14.034C117.112 14.034 116.612 14.034 116.184 14.1787C115.256 14.5404 114.4 15.1192 113.615 15.7702C113.615 18.9532 113.615 22.2085 113.615 25.3915C113.044 25.3915 112.473 25.3915 111.902 25.3915C111.902 23.583 111.83 21.7745 111.83 19.8936C111.83 18.0128 111.83 16.1319 111.688 14.2511C111.83 13.8894 111.688 13.383 111.545 12.8766Z" fill="#2E1706"/>
</svg>
